<!-- Generator: Adobe Illustrator 23.0.2, SVG Export Plug-In  -->
<svg version="1.1" xmlns="http://www.w3.org/2000/svg" xmlns:xlink="http://www.w3.org/1999/xlink" x="0px" y="0px"
	 width="1093.6px" height="190.6px" viewBox="0 0 1093.6 190.6" style="enable-background:new 0 0 1093.6 190.6;"
	 xml:space="preserve">
<defs>
</defs>
<g>
	<path d="M703.6,99.6V96h25.3v3.6h-10.4v28.6h-4.3V99.6H703.6z"/>
	<path d="M754.5,109.7v3.6h-16.9v11.2h19.1v3.6h-23.5V96h23v3.6h-18.6v10.1H754.5z"/>
	<path d="M759.6,112.1c0-2.8,0.4-5.3,1.2-7.4c0.8-2.1,1.8-3.9,3.2-5.3c1.3-1.4,3-2.5,4.9-3.2s3.9-1.1,6.2-1.1c1.8,0,3.6,0.3,5.4,0.8
		c1.8,0.6,3.5,1.5,4.9,2.8c1.5,1.3,2.7,3.1,3.6,5.2c0.9,2.2,1.4,4.9,1.4,8.2c0,2.8-0.3,5.2-1,7.1c-0.7,1.9-1.5,3.5-2.6,4.8
		c-1,1.3-2.2,2.2-3.4,2.9s-2.4,1.2-3.5,1.5c-1.1,0.3-2.1,0.5-3,0.6c-0.9,0.1-1.5,0.1-1.8,0.1s-1,0-1.9-0.1c-0.9-0.1-1.9-0.3-3.1-0.6
		s-2.3-0.9-3.5-1.5c-1.2-0.7-2.4-1.7-3.4-2.9c-1-1.3-1.9-2.9-2.5-4.8C760,117.3,759.6,114.9,759.6,112.1z M764.2,112.1
		c0,1.3,0.1,2.7,0.4,4.3c0.3,1.6,0.8,3,1.5,4.4c0.8,1.4,1.9,2.5,3.3,3.4c1.4,0.9,3.3,1.4,5.6,1.4c0.4,0,0.9,0,1.6-0.1
		c0.7-0.1,1.4-0.2,2.2-0.5c0.8-0.3,1.6-0.7,2.4-1.3s1.6-1.3,2.3-2.3c0.7-1,1.2-2.2,1.7-3.7c0.4-1.5,0.6-3.3,0.6-5.5
		c0-1.9-0.2-3.7-0.6-5.3c-0.4-1.6-1.1-3.1-2-4.3c-0.9-1.2-2-2.1-3.4-2.8c-1.4-0.7-3-1-4.8-1c-1.6,0-3,0.3-4.2,0.8s-2.2,1.2-3,2
		c-0.8,0.8-1.4,1.7-1.9,2.7c-0.5,1-0.8,2-1.1,3c-0.2,1-0.4,1.9-0.5,2.8C764.3,110.7,764.2,111.5,764.2,112.1z"/>
	<path d="M809.4,96c1.6,0,3.1,0.2,4.5,0.5c1.3,0.3,2.5,0.9,3.4,1.6c0.9,0.7,1.7,1.7,2.2,2.9c0.5,1.2,0.8,2.6,0.8,4.3
		c0,1.5-0.2,2.9-0.6,4.1c-0.4,1.2-1,2.3-1.9,3.2c-0.9,0.9-2,1.6-3.5,2.1c-1.4,0.5-3.2,0.7-5.3,0.7h-8.3v12.8h-4.3V96H809.4z
		 M800.7,111.7h7.9c2.6,0,4.4-0.5,5.6-1.6c1.2-1.1,1.7-2.7,1.7-4.8c0-2-0.6-3.4-1.8-4.3c-1.2-0.9-3.1-1.4-5.5-1.4h-7.9V111.7z"/>
	<path d="M847,109.7v3.6h-16.9v11.2h19.1v3.6h-23.5V96h23v3.6h-18.6v10.1H847z"/>
	<path d="M851.7,99.6V96H877v3.6h-10.4v28.6h-4.3V99.6H851.7z"/>
	<path d="M903,96h4.3v32.2H903v-26.1l-17.2,26.1h-4.3V96h4.3v25.9L903,96z"/>
	<path d="M918.2,96v9.4c0,1.3,0.2,2.2,0.5,3c0.3,0.7,0.8,1.3,1.4,1.6c0.6,0.4,1.5,0.6,2.4,0.7c1,0.1,2.1,0.2,3.4,0.2
		c0.5,0,1,0,1.5,0c0.6,0,1.1-0.1,1.7-0.1c0.6,0,1.1-0.1,1.7-0.1c0.5,0,1-0.1,1.4-0.1V96h4.3v32.2h-4.3v-14c-0.4,0-1,0.1-1.6,0.1
		c-0.6,0-1.3,0.1-1.9,0.1c-0.7,0-1.3,0.1-2,0.1c-0.6,0-1.2,0-1.6,0c-2,0-3.7-0.1-5.1-0.3c-1.4-0.2-2.6-0.7-3.5-1.3s-1.6-1.5-2-2.6
		c-0.4-1.1-0.6-2.5-0.6-4.2V96H918.2z"/>
	<path d="M965.6,109.7v3.6h-16.9v11.2h19.1v3.6h-23.5V96h23v3.6h-18.6v10.1H965.6z"/>
	<path d="M999.6,117.5c-0.2,1.2-0.5,2.4-0.9,3.8c-0.5,1.3-1.2,2.6-2.2,3.8c-1,1.2-2.4,2.1-4.1,2.9c-1.7,0.8-3.8,1.2-6.4,1.2
		c-2.4,0-4.5-0.4-6.4-1.1c-1.9-0.8-3.5-1.8-4.8-3.3c-1.3-1.4-2.3-3.2-3-5.2c-0.7-2-1.1-4.3-1.1-6.9c0-2.9,0.3-5.3,0.9-7.2
		c0.6-2,1.4-3.6,2.4-4.9c1-1.3,2-2.3,3.2-3.1c1.2-0.7,2.4-1.3,3.5-1.6s2.1-0.6,3.1-0.6c0.9-0.1,1.6-0.1,2.1-0.1c2.6,0,4.7,0.3,6.3,1
		c1.7,0.7,3,1.5,4,2.6c1,1.1,1.7,2.2,2.2,3.5c0.4,1.3,0.7,2.5,0.9,3.8h-4.3c-0.1-0.6-0.2-1.3-0.5-2.1c-0.3-0.8-0.7-1.6-1.4-2.4
		c-0.6-0.8-1.5-1.4-2.7-2c-1.1-0.5-2.6-0.8-4.5-0.8c-2,0-3.7,0.4-5.1,1.2c-1.3,0.8-2.4,1.8-3.2,3.1c-0.8,1.3-1.4,2.8-1.7,4.4
		s-0.5,3.4-0.5,5.1c0,1.9,0.2,3.6,0.7,5.2s1.2,3,2.2,4.1c1,1.2,2.1,2.1,3.4,2.7c1.3,0.7,2.9,1,4.6,1c1.3,0,2.5-0.2,3.6-0.6
		c1.1-0.4,2-1,2.8-1.7c0.8-0.7,1.4-1.6,1.9-2.5c0.5-1,0.7-2,0.8-3.2H999.6z"/>
	<path d="M1024.1,96h5.3l-15.3,14.9l16.3,17.3h-5.7l-15.1-16.8v16.8h-4.3V96h4.3v14.7L1024.1,96z"/>
	<path d="M1055.6,96h4.3v32.2h-4.3v-26.1l-17.2,26.1h-4.3V96h4.3v25.9L1055.6,96z"/>
	<path d="M1089.2,96h4.3v32.2h-4.3v-26.1l-17.2,26.1h-4.3V96h4.3v25.9L1089.2,96z M1076.2,88.7c0,0.5,0.1,0.9,0.3,1.3
		c0.2,0.4,0.4,0.8,0.8,1.1c0.4,0.3,0.8,0.6,1.4,0.8c0.6,0.2,1.2,0.3,2,0.3c0.8,0,1.4-0.1,2-0.3c0.6-0.2,1-0.5,1.4-0.8
		c0.4-0.3,0.6-0.7,0.8-1.1c0.2-0.4,0.3-0.9,0.3-1.3h3.4c-0.2,1.2-0.6,2.1-1.1,2.9c-0.5,0.8-1.1,1.4-1.8,1.9c-0.7,0.5-1.5,0.8-2.3,1
		c-0.8,0.2-1.7,0.3-2.6,0.3s-1.8-0.1-2.6-0.3c-0.8-0.2-1.6-0.5-2.3-1c-0.7-0.5-1.3-1.1-1.8-1.9s-0.9-1.7-1.2-2.9H1076.2z"/>
	<path d="M676.1,183.4h-4.6l12.2-32.2h4.6l12.2,32.2h-4.6l-3-8.3h-13.7L676.1,183.4z M691.6,171.4l-5.6-15.9l-5.6,15.9H691.6z"/>
	<path d="M708.5,183.4h-4.3v-32.2h24.8v32.2h-4.3v-28.6h-16.2V183.4z"/>
	<path d="M749.9,151.2c1.6,0,3.1,0.2,4.5,0.5c1.3,0.3,2.5,0.9,3.4,1.6c0.9,0.7,1.7,1.7,2.2,2.9c0.5,1.2,0.8,2.6,0.8,4.3
		c0,1.5-0.2,2.9-0.6,4.1c-0.4,1.2-1,2.3-1.9,3.2c-0.9,0.9-2,1.6-3.5,2.1s-3.2,0.7-5.3,0.7h-8.3v12.8h-4.3v-32.2H749.9z M741.2,166.9
		h7.9c2.6,0,4.4-0.5,5.6-1.6c1.2-1.1,1.7-2.7,1.7-4.8c0-2-0.6-3.4-1.8-4.3c-1.2-0.9-3.1-1.4-5.5-1.4h-7.9V166.9z"/>
	<path d="M764.4,167.3c0-2.8,0.4-5.3,1.2-7.4c0.8-2.1,1.8-3.9,3.2-5.3s3-2.5,4.9-3.2c1.9-0.7,3.9-1.1,6.2-1.1c1.8,0,3.6,0.3,5.4,0.8
		c1.8,0.6,3.5,1.5,4.9,2.8c1.5,1.3,2.7,3.1,3.6,5.2c0.9,2.2,1.4,4.9,1.4,8.2c0,2.8-0.3,5.2-1,7.1c-0.7,1.9-1.5,3.6-2.6,4.8
		c-1,1.3-2.2,2.2-3.4,2.9c-1.2,0.7-2.4,1.2-3.5,1.5c-1.1,0.3-2.1,0.5-3,0.6c-0.9,0.1-1.5,0.1-1.8,0.1c-0.3,0-1,0-1.9-0.1
		c-0.9-0.1-1.9-0.3-3.1-0.6c-1.1-0.3-2.3-0.9-3.5-1.5s-2.4-1.7-3.4-2.9c-1-1.3-1.9-2.9-2.5-4.8C764.8,172.5,764.4,170.1,764.4,167.3
		z M769,167.3c0,1.3,0.1,2.7,0.4,4.3c0.3,1.6,0.8,3,1.5,4.4c0.8,1.4,1.9,2.5,3.3,3.4c1.4,0.9,3.3,1.4,5.6,1.4c0.4,0,0.9,0,1.6-0.1
		c0.7-0.1,1.4-0.2,2.2-0.5c0.8-0.3,1.6-0.7,2.4-1.3s1.6-1.3,2.3-2.3c0.7-1,1.2-2.2,1.7-3.7s0.6-3.3,0.6-5.5c0-1.9-0.2-3.7-0.6-5.3
		c-0.4-1.6-1.1-3.1-2-4.3c-0.9-1.2-2-2.1-3.4-2.8c-1.4-0.7-3-1-4.8-1c-1.6,0-3,0.3-4.2,0.8c-1.2,0.5-2.2,1.2-3,2
		c-0.8,0.8-1.4,1.7-1.9,2.7s-0.8,2-1.1,3c-0.2,1-0.4,1.9-0.5,2.8C769.1,165.9,769,166.7,769,167.3z"/>
	<path d="M805.5,164.5h9.8c0.5,0,1.2,0,1.9,0.1c0.7,0,1.5,0.2,2.3,0.4c0.8,0.2,1.6,0.5,2.4,0.9c0.8,0.4,1.5,1,2.1,1.7
		c0.6,0.7,1.1,1.6,1.5,2.7c0.4,1.1,0.6,2.3,0.6,3.8c0,1.1-0.2,2.2-0.5,3.3s-0.9,2.1-1.6,3c-0.8,0.9-1.9,1.6-3.3,2.2
		c-1.4,0.6-3.1,0.9-5.3,0.9h-14.2v-32.2h22.8v3.6h-18.4V164.5z M805.5,179.7h9c0.9,0,1.7-0.1,2.6-0.2c0.9-0.2,1.6-0.4,2.3-0.9
		s1.2-1,1.7-1.7c0.4-0.7,0.6-1.7,0.6-2.9c0-1.3-0.2-2.3-0.7-3.1c-0.5-0.8-1-1.4-1.7-1.8c-0.7-0.4-1.5-0.7-2.3-0.9
		c-0.8-0.1-1.7-0.2-2.5-0.2h-9V179.7z"/>
	<path d="M832.4,183.4h-4.6l12.2-32.2h4.6l12.2,32.2h-4.6l-3-8.3h-13.7L832.4,183.4z M847.9,171.4l-5.6-15.9l-5.6,15.9H847.9z"/>
	<path d="M881.1,179.7v-28.6h4.3v28.6h4.5l-0.3,10.9h-3.7v-7.3h-25.4v-32.2h4.3v28.6H881.1z"/>
	<path d="M916,151.2h4.3v32.2H916v-26.1l-17.2,26.1h-4.3v-32.2h4.3v25.9L916,151.2z"/>
	<path d="M926.3,167.3c0-2.8,0.4-5.3,1.2-7.4c0.8-2.1,1.8-3.9,3.2-5.3c1.3-1.4,3-2.5,4.9-3.2c1.9-0.7,3.9-1.1,6.2-1.1
		c1.8,0,3.6,0.3,5.4,0.8c1.8,0.6,3.5,1.5,4.9,2.8c1.5,1.3,2.7,3.1,3.6,5.2s1.4,4.9,1.4,8.2c0,2.8-0.3,5.2-1,7.1
		c-0.7,1.9-1.5,3.6-2.6,4.8c-1,1.3-2.2,2.2-3.4,2.9s-2.4,1.2-3.5,1.5c-1.1,0.3-2.1,0.5-3,0.6c-0.9,0.1-1.5,0.1-1.8,0.1s-1,0-1.9-0.1
		s-1.9-0.3-3.1-0.6c-1.1-0.3-2.3-0.9-3.5-1.5c-1.2-0.7-2.4-1.7-3.4-2.9c-1-1.3-1.9-2.9-2.5-4.8C926.6,172.5,926.3,170.1,926.3,167.3
		z M930.9,167.3c0,1.3,0.1,2.7,0.4,4.3c0.3,1.6,0.8,3,1.5,4.4c0.8,1.4,1.9,2.5,3.3,3.4c1.4,0.9,3.3,1.4,5.6,1.4c0.4,0,0.9,0,1.6-0.1
		c0.7-0.1,1.4-0.2,2.2-0.5c0.8-0.3,1.6-0.7,2.4-1.3s1.6-1.3,2.3-2.3c0.7-1,1.2-2.2,1.7-3.7c0.4-1.5,0.6-3.3,0.6-5.5
		c0-1.9-0.2-3.7-0.6-5.3c-0.4-1.6-1.1-3.1-2-4.3c-0.9-1.2-2-2.1-3.4-2.8c-1.4-0.7-3-1-4.8-1c-1.6,0-3,0.3-4.2,0.8s-2.2,1.2-3,2
		c-0.8,0.8-1.4,1.7-1.9,2.7c-0.5,1-0.8,2-1.1,3c-0.2,1-0.4,1.9-0.5,2.8C930.9,165.9,930.9,166.7,930.9,167.3z"/>
	<path d="M967.3,183.4H963v-32.2h4.3v13.4h16.2v-13.4h4.3v32.2h-4.3v-15.1h-16.2V183.4z"/>
	<path d="M1000,183.4h-4.3v-32.2h4.3v13.4h16.2v-13.4h4.3v32.2h-4.3v-15.1H1000V183.4z"/>
	<path d="M1032.6,164.3h9.2c3.3,0,5.8,0.8,7.6,2.5c1.8,1.7,2.7,4.1,2.7,7.1c0,2.1-0.4,3.8-1.1,5c-0.7,1.2-1.7,2.2-2.8,2.9
		c-1.1,0.7-2.2,1.1-3.4,1.3s-2.2,0.3-3,0.3h-13.6v-32.2h4.3V164.3z M1032.6,179.7h8.7c0.6,0,1.2-0.1,2-0.2c0.8-0.1,1.5-0.4,2.1-0.9
		c0.7-0.4,1.2-1,1.7-1.8c0.5-0.8,0.7-1.8,0.7-3.1c0-1.5-0.3-2.7-0.9-3.5c-0.6-0.8-1.3-1.4-2.3-1.7s-1.9-0.6-2.9-0.6s-2-0.1-2.8-0.1
		h-6.4V179.7z M1059.9,151.2v32.2h-4.3v-32.2H1059.9z"/>
	<path d="M1089.2,151.2h4.3v32.2h-4.3v-26.1l-17.2,26.1h-4.3v-32.2h4.3v25.9L1089.2,151.2z M1076.2,143.9c0,0.5,0.1,0.9,0.3,1.3
		c0.2,0.4,0.4,0.8,0.8,1.2c0.4,0.3,0.8,0.6,1.4,0.8c0.6,0.2,1.2,0.3,2,0.3c0.8,0,1.4-0.1,2-0.3c0.6-0.2,1-0.5,1.4-0.8
		c0.4-0.3,0.6-0.7,0.8-1.2c0.2-0.4,0.3-0.9,0.3-1.3h3.5c-0.2,1.2-0.6,2.1-1.2,2.9s-1.1,1.4-1.8,1.9c-0.7,0.5-1.5,0.8-2.3,1
		s-1.7,0.3-2.6,0.3s-1.8-0.1-2.6-0.3c-0.8-0.2-1.6-0.5-2.3-1c-0.7-0.5-1.3-1.1-1.8-1.9s-0.9-1.7-1.2-2.9H1076.2z"/>
</g>
<g>
	<path d="M3.5,101.7h1c1,0,1.9-0.1,2.8-0.4c0.9-0.3,1.7-0.7,2.4-1.2c0.7-0.5,1.3-1.1,1.7-1.8c0.4-0.7,0.7-1.5,0.9-2.4h3v32.2h-4.3
		V104H3.5V101.7z"/>
	<path d="M21.8,183.4H0c0-1.9,0.3-3.6,0.8-5c0.5-1.4,1.3-2.7,2.3-3.8c1-1.1,2.2-2.1,3.5-3c1.3-0.9,2.8-1.9,4.4-2.9
		c0.7-0.4,1.4-0.9,2.2-1.4c0.8-0.5,1.5-1.1,2.2-1.7c0.7-0.7,1.2-1.5,1.6-2.4c0.4-0.9,0.6-2,0.6-3.2c0-2-0.6-3.6-1.8-4.6
		c-1.2-1-2.8-1.6-4.7-1.6c-2.1,0-3.7,0.6-4.9,1.7c-1.2,1.2-1.8,2.7-1.8,4.6v1.2H0.1v-1c0-0.7,0.1-1.7,0.3-2.8
		c0.2-1.2,0.7-2.3,1.5-3.4c0.8-1.1,1.9-2.1,3.3-2.9c1.5-0.8,3.4-1.2,5.9-1.2c1.7,0,3.1,0.2,4.5,0.7c1.3,0.4,2.4,1.1,3.4,1.9
		c0.9,0.8,1.7,1.8,2.2,3.1s0.8,2.6,0.8,4.1c0,1.5-0.2,2.8-0.6,3.9c-0.4,1.1-1,2.1-1.8,3s-1.9,1.8-3.2,2.7c-1.3,0.9-2.9,2-4.8,3.2
		c-2.2,1.4-3.8,2.6-4.8,3.7c-1,1.1-1.7,2.2-2,3.4h17V183.4z"/>
</g>
<g>
	<path d="M5.7,33.2H1.4V1h24.8v32.2h-4.3V4.6H5.7V33.2z"/>
	<path d="M47.1,1c1.6,0,3.1,0.2,4.5,0.5S54,2.3,55,3.1c0.9,0.7,1.7,1.7,2.2,2.9c0.5,1.2,0.8,2.6,0.8,4.3c0,1.5-0.2,2.9-0.6,4.1
		c-0.4,1.2-1,2.3-1.9,3.2c-0.9,0.9-2,1.6-3.5,2.1c-1.4,0.5-3.2,0.7-5.3,0.7h-8.3v12.8H34V1H47.1z M38.4,16.7h7.9
		c2.6,0,4.4-0.5,5.6-1.6c1.2-1.1,1.7-2.7,1.7-4.8c0-2-0.6-3.4-1.8-4.3c-1.2-0.9-3.1-1.4-5.5-1.4h-7.9V16.7z"/>
	<path d="M61.6,17.1c0-2.8,0.4-5.3,1.2-7.4c0.8-2.1,1.8-3.9,3.2-5.3c1.3-1.4,3-2.5,4.9-3.2C72.7,0.4,74.7,0,77,0
		c1.8,0,3.6,0.3,5.4,0.8c1.8,0.6,3.5,1.5,4.9,2.8c1.5,1.3,2.7,3.1,3.6,5.2c0.9,2.2,1.4,4.9,1.4,8.2c0,2.8-0.3,5.2-1,7.1
		c-0.7,1.9-1.5,3.5-2.6,4.8c-1,1.3-2.2,2.2-3.4,2.9c-1.2,0.7-2.4,1.2-3.5,1.5c-1.1,0.3-2.1,0.5-3,0.6c-0.9,0.1-1.5,0.1-1.8,0.1
		c-0.3,0-1,0-1.9-0.1c-0.9-0.1-1.9-0.3-3.1-0.6c-1.1-0.3-2.3-0.9-3.5-1.5c-1.2-0.7-2.4-1.7-3.4-2.9c-1-1.3-1.9-2.9-2.5-4.8
		C61.9,22.3,61.6,19.9,61.6,17.1z M66.2,17.1c0,1.3,0.1,2.7,0.4,4.3c0.3,1.6,0.8,3,1.5,4.4c0.8,1.4,1.9,2.5,3.3,3.4
		c1.4,0.9,3.3,1.4,5.6,1.4c0.4,0,0.9,0,1.6-0.1c0.7-0.1,1.4-0.2,2.2-0.5c0.8-0.3,1.6-0.7,2.4-1.3s1.6-1.3,2.3-2.3
		c0.7-1,1.2-2.2,1.7-3.7c0.4-1.5,0.6-3.3,0.6-5.5c0-1.9-0.2-3.7-0.6-5.3c-0.4-1.6-1.1-3.1-2-4.3c-0.9-1.2-2-2.1-3.4-2.8
		c-1.4-0.7-3-1-4.8-1c-1.6,0-3,0.3-4.2,0.8c-1.2,0.5-2.2,1.2-3,2C69,7.1,68.3,8,67.9,9c-0.5,1-0.8,2-1.1,3c-0.2,1-0.4,1.9-0.5,2.8
		C66.2,15.7,66.2,16.5,66.2,17.1z"/>
	<path d="M119.5,14.7v3.6h-16.9v11.2h19.1v3.6H98.3V1h23v3.6h-18.6v10.1H119.5z"/>
	<path d="M145.3,1h5.3l-15.3,14.9l16.3,17.3h-5.7l-15.1-16.8v16.8h-4.3V1h4.3v14.7L145.3,1z"/>
	<path d="M152,4.6V1h25.3v3.6h-10.4v28.6h-4.3V4.6H152z"/>
	<path d="M219.6,22.5c-0.2,1.2-0.5,2.4-0.9,3.8c-0.5,1.3-1.2,2.6-2.2,3.8c-1,1.2-2.4,2.1-4.1,2.9c-1.7,0.8-3.8,1.2-6.4,1.2
		c-2.4,0-4.5-0.4-6.4-1.1c-1.9-0.8-3.5-1.8-4.8-3.3c-1.3-1.4-2.3-3.2-3-5.2c-0.7-2-1.1-4.3-1.1-6.9c0-2.9,0.3-5.3,0.9-7.2
		c0.6-2,1.4-3.6,2.4-4.9c1-1.3,2-2.3,3.2-3.1c1.2-0.7,2.4-1.3,3.5-1.6c1.1-0.4,2.1-0.6,3.1-0.6c0.9-0.1,1.6-0.1,2.1-0.1
		c2.6,0,4.7,0.3,6.3,1c1.7,0.7,3,1.5,4,2.6c1,1.1,1.7,2.2,2.2,3.5c0.4,1.3,0.7,2.5,0.9,3.8h-4.3c-0.1-0.6-0.2-1.3-0.5-2.1
		c-0.3-0.8-0.7-1.6-1.4-2.4c-0.6-0.8-1.5-1.4-2.7-2c-1.1-0.5-2.6-0.8-4.5-0.8c-2,0-3.7,0.4-5.1,1.2c-1.3,0.8-2.4,1.8-3.2,3.1
		c-0.8,1.3-1.4,2.8-1.7,4.4c-0.4,1.7-0.5,3.4-0.5,5.1c0,1.9,0.2,3.6,0.7,5.2c0.5,1.6,1.2,3,2.2,4.1c1,1.2,2.1,2.1,3.4,2.7
		c1.3,0.7,2.9,1,4.6,1c1.3,0,2.5-0.2,3.6-0.6c1.1-0.4,2-1,2.8-1.7c0.8-0.7,1.4-1.6,1.9-2.5c0.5-1,0.7-2,0.8-3.2H219.6z"/>
	<path d="M223.4,17.1c0-2.8,0.4-5.3,1.2-7.4c0.8-2.1,1.8-3.9,3.2-5.3c1.3-1.4,3-2.5,4.9-3.2c1.9-0.7,3.9-1.1,6.2-1.1
		c1.8,0,3.6,0.3,5.4,0.8c1.8,0.6,3.5,1.5,4.9,2.8c1.5,1.3,2.7,3.1,3.6,5.2c0.9,2.2,1.4,4.9,1.4,8.2c0,2.8-0.3,5.2-1,7.1
		c-0.7,1.9-1.5,3.5-2.6,4.8c-1,1.3-2.2,2.2-3.4,2.9c-1.2,0.7-2.4,1.2-3.5,1.5c-1.1,0.3-2.1,0.5-3,0.6c-0.9,0.1-1.5,0.1-1.8,0.1
		c-0.3,0-1,0-1.9-0.1c-0.9-0.1-1.9-0.3-3.1-0.6c-1.1-0.3-2.3-0.9-3.5-1.5c-1.2-0.7-2.4-1.7-3.4-2.9c-1-1.3-1.9-2.9-2.5-4.8
		C223.7,22.3,223.4,19.9,223.4,17.1z M228,17.1c0,1.3,0.1,2.7,0.4,4.3c0.3,1.6,0.8,3,1.5,4.4c0.8,1.4,1.9,2.5,3.3,3.4
		c1.4,0.9,3.3,1.4,5.6,1.4c0.4,0,0.9,0,1.6-0.1c0.7-0.1,1.4-0.2,2.2-0.5c0.8-0.3,1.6-0.7,2.4-1.3s1.6-1.3,2.3-2.3
		c0.7-1,1.2-2.2,1.7-3.7c0.4-1.5,0.6-3.3,0.6-5.5c0-1.9-0.2-3.7-0.6-5.3c-0.4-1.6-1.1-3.1-2-4.3c-0.9-1.2-2-2.1-3.4-2.8
		c-1.4-0.7-3-1-4.8-1c-1.6,0-3,0.3-4.2,0.8c-1.2,0.5-2.2,1.2-3,2c-0.8,0.8-1.4,1.7-1.9,2.7c-0.5,1-0.8,2-1.1,3
		c-0.2,1-0.4,1.9-0.5,2.8C228,15.7,228,16.5,228,17.1z"/>
	<path d="M287.2,22.5c-0.2,1.2-0.5,2.4-0.9,3.8c-0.5,1.3-1.2,2.6-2.2,3.8c-1,1.2-2.4,2.1-4.1,2.9c-1.7,0.8-3.8,1.2-6.4,1.2
		c-2.4,0-4.5-0.4-6.4-1.1c-1.9-0.8-3.5-1.8-4.8-3.3c-1.3-1.4-2.3-3.2-3-5.2c-0.7-2-1.1-4.3-1.1-6.9c0-2.9,0.3-5.3,0.9-7.2
		c0.6-2,1.4-3.6,2.4-4.9c1-1.3,2-2.3,3.2-3.1c1.2-0.7,2.4-1.3,3.5-1.6c1.1-0.4,2.1-0.6,3.1-0.6C272.3,0,273,0,273.4,0
		c2.6,0,4.7,0.3,6.3,1c1.7,0.7,3,1.5,4,2.6c1,1.1,1.7,2.2,2.2,3.5c0.4,1.3,0.7,2.5,0.9,3.8h-4.3c-0.1-0.6-0.2-1.3-0.5-2.1
		c-0.3-0.8-0.7-1.6-1.4-2.4c-0.6-0.8-1.5-1.4-2.7-2c-1.1-0.5-2.6-0.8-4.5-0.8c-2,0-3.7,0.4-5.1,1.2c-1.3,0.8-2.4,1.8-3.2,3.1
		c-0.8,1.3-1.4,2.8-1.7,4.4c-0.4,1.7-0.5,3.4-0.5,5.1c0,1.9,0.2,3.6,0.7,5.2c0.5,1.6,1.2,3,2.2,4.1c1,1.2,2.1,2.1,3.4,2.7
		c1.3,0.7,2.9,1,4.6,1c1.3,0,2.5-0.2,3.6-0.6c1.1-0.4,2-1,2.8-1.7c0.8-0.7,1.4-1.6,1.9-2.5c0.5-1,0.7-2,0.8-3.2H287.2z"/>
	<path d="M288.8,4.6V1H314v3.6h-10.4v28.6h-4.3V4.6H288.8z"/>
	<path d="M315.6,17.1c0-2.8,0.4-5.3,1.2-7.4c0.8-2.1,1.8-3.9,3.2-5.3c1.3-1.4,3-2.5,4.9-3.2c1.9-0.7,3.9-1.1,6.2-1.1
		c1.8,0,3.6,0.3,5.4,0.8c1.8,0.6,3.5,1.5,4.9,2.8c1.5,1.3,2.7,3.1,3.6,5.2c0.9,2.2,1.4,4.9,1.4,8.2c0,2.8-0.3,5.2-1,7.1
		c-0.7,1.9-1.5,3.5-2.6,4.8c-1,1.3-2.2,2.2-3.4,2.9c-1.2,0.7-2.4,1.2-3.5,1.5c-1.1,0.3-2.1,0.5-3,0.6c-0.9,0.1-1.5,0.1-1.8,0.1
		c-0.3,0-1,0-1.9-0.1c-0.9-0.1-1.9-0.3-3.1-0.6c-1.1-0.3-2.3-0.9-3.5-1.5c-1.2-0.7-2.4-1.7-3.4-2.9c-1-1.3-1.9-2.9-2.5-4.8
		C315.9,22.3,315.6,19.9,315.6,17.1z M320.2,17.1c0,1.3,0.1,2.7,0.4,4.3c0.3,1.6,0.8,3,1.5,4.4c0.8,1.4,1.9,2.5,3.3,3.4
		c1.4,0.9,3.3,1.4,5.6,1.4c0.4,0,0.9,0,1.6-0.1c0.7-0.1,1.4-0.2,2.2-0.5c0.8-0.3,1.6-0.7,2.4-1.3s1.6-1.3,2.3-2.3
		c0.7-1,1.2-2.2,1.7-3.7c0.4-1.5,0.6-3.3,0.6-5.5c0-1.9-0.2-3.7-0.6-5.3c-0.4-1.6-1.1-3.1-2-4.3c-0.9-1.2-2-2.1-3.4-2.8
		c-1.4-0.7-3-1-4.8-1c-1.6,0-3,0.3-4.2,0.8c-1.2,0.5-2.2,1.2-3,2c-0.8,0.8-1.4,1.7-1.9,2.7c-0.5,1-0.8,2-1.1,3
		c-0.2,1-0.4,1.9-0.5,2.8C320.2,15.7,320.2,16.5,320.2,17.1z"/>
	<path d="M373.7,1h4.3v32.2h-4.3V7.1l-17.2,26.1h-4.3V1h4.3v25.9L373.7,1z"/>
	<path d="M382.6,4.6V1h25.3v3.6h-10.4v28.6h-4.3V4.6H382.6z"/>
	<path d="M444.5,1h4.3v32.2h-4.3V7.1l-17.2,26.1h-4.3V1h4.3v25.9L444.5,1z"/>
	<path d="M459.2,23.3c0.1,0.8,0.2,1.6,0.5,2.5c0.3,0.8,0.7,1.6,1.4,2.3c0.7,0.7,1.6,1.3,2.7,1.7s2.7,0.7,4.5,0.7
		c1.6,0,2.9-0.2,3.9-0.6s1.8-0.9,2.5-1.5s1-1.3,1.3-2.1c0.2-0.8,0.4-1.5,0.4-2.2c0-0.7-0.1-1.4-0.3-2.1s-0.5-1.4-1.1-2
		c-0.5-0.6-1.3-1.1-2.2-1.4c-1-0.4-2.2-0.6-3.8-0.6h-4.3v-3.6h3.9c0.4,0,0.9,0,1.6-0.1c0.7-0.1,1.5-0.3,2.2-0.6
		c0.7-0.3,1.4-0.8,1.9-1.5c0.5-0.7,0.8-1.6,0.8-2.9c0-1.4-0.3-2.5-1-3.2c-0.6-0.8-1.4-1.3-2.2-1.7c-0.8-0.4-1.7-0.6-2.5-0.6
		c-0.8-0.1-1.4-0.1-1.7-0.1s-0.9,0-1.8,0.1c-0.8,0.1-1.7,0.3-2.6,0.7c-0.9,0.4-1.7,1-2.4,1.8c-0.7,0.8-1.1,2-1.2,3.6h-4.3
		c0.1-1.6,0.4-2.9,0.9-4c0.5-1.1,1.1-2,1.8-2.7c0.7-0.7,1.5-1.3,2.4-1.7c0.9-0.4,1.8-0.7,2.7-0.9c0.9-0.2,1.8-0.3,2.6-0.4
		C466.6,0,467.3,0,468,0c1.7,0,3.3,0.2,4.7,0.6c1.4,0.4,2.6,0.9,3.6,1.7c1,0.7,1.8,1.7,2.3,2.8c0.5,1.1,0.8,2.5,0.8,4
		c0,1.7-0.5,3.3-1.5,4.6c-1,1.3-2.3,2.1-4,2.4v0.1c2.5,0.6,4.2,1.6,5.2,3.1c1,1.5,1.5,3.3,1.5,5.3c0,1.1-0.2,2.2-0.5,3.3
		c-0.4,1.1-1,2.2-1.9,3.1c-0.9,0.9-2.1,1.7-3.7,2.3c-1.6,0.6-3.6,0.9-6,0.9c-2.7,0-5-0.3-6.8-1s-3.1-1.5-4.1-2.6
		c-1-1-1.7-2.2-2.1-3.5c-0.4-1.3-0.6-2.6-0.7-3.8H459.2z"/>
	<path d="M527.5,29.5l-0.4,10.9h-3.9v-7.3h-25v7.3h-3.7l-0.4-10.9h2.9c0.7-0.9,1.5-2,2.2-3.3c0.7-1.3,1.4-2.8,2-4.6
		c0.6-1.8,1.1-3.8,1.4-6.1c0.4-2.3,0.5-5,0.5-8V1h19.7v28.6H527.5z M507.5,4.6v4c0,2.1-0.1,4.1-0.3,6c-0.2,1.9-0.5,3.7-0.9,5.4
		c-0.4,1.7-0.9,3.3-1.6,4.9c-0.7,1.6-1.5,3.1-2.6,4.7h16.3V4.6H507.5z"/>
	<path d="M546.2,1c2,0,3.6,0.3,4.8,0.8s2.2,1.1,2.9,1.9c0.7,0.8,1.2,1.7,1.5,2.6c0.3,1,0.4,1.9,0.4,2.9c0,0.9-0.1,1.7-0.4,2.5
		c-0.3,0.8-0.7,1.5-1.1,2.1c-0.5,0.6-1,1.1-1.7,1.5s-1.3,0.7-2.1,0.8v0.1c0.7,0.1,1.4,0.3,2.2,0.6c0.8,0.3,1.5,0.8,2.2,1.4
		c0.7,0.6,1.2,1.4,1.7,2.4c0.5,1,0.7,2.2,0.7,3.6c0,1.2-0.2,2.3-0.5,3.4c-0.3,1.1-0.9,2-1.8,2.9c-0.9,0.8-2,1.5-3.5,2
		c-1.5,0.5-3.4,0.8-5.7,0.8H532V1H546.2z M536.4,14.6h8.7c1.2,0,2.2-0.1,3-0.4c0.8-0.3,1.4-0.6,1.9-1.1s0.8-1,1.1-1.6
		c0.2-0.6,0.3-1.2,0.3-1.9c0-0.5-0.1-1-0.2-1.6c-0.1-0.6-0.4-1.1-0.9-1.6c-0.4-0.5-1.1-0.9-1.9-1.3c-0.8-0.4-1.9-0.5-3.3-0.5h-8.9
		V14.6z M536.4,29.5h9c0.7,0,1.5-0.1,2.4-0.2c0.9-0.1,1.7-0.4,2.4-0.7s1.4-1,1.9-1.7c0.5-0.8,0.7-1.8,0.7-3.1c0-1-0.2-1.9-0.5-2.6
		c-0.4-0.7-0.9-1.3-1.5-1.7c-0.6-0.4-1.4-0.7-2.3-0.9c-0.9-0.2-1.9-0.3-3.1-0.3h-9V29.5z"/>
	<path d="M581.7,1h4.6l-10.9,26.4c-0.6,1.5-1.3,2.7-2,3.6c-0.7,0.8-1.4,1.5-2.1,1.8c-0.7,0.4-1.4,0.6-2.1,0.7
		c-0.7,0.1-1.4,0.1-2,0.1c-0.7,0-1.3,0-1.8-0.1c-0.5-0.1-1.1-0.2-1.8-0.4v-3.7c0.5,0.2,1,0.3,1.5,0.4c0.5,0.1,1,0.1,1.5,0.1
		c0.5,0,0.9,0,1.4-0.1c0.4-0.1,0.9-0.3,1.3-0.6c0.4-0.3,0.9-0.8,1.3-1.5c0.4-0.6,0.8-1.5,1.1-2.7L559.4,1h5.3l9.2,19.4L581.7,1z"/>
	<path d="M608.4,1h5.4l-10.7,15.7l11.3,16.5h-5.6l-8.5-13.4l-8.5,13.4h-5.6l11.3-16.5L586.9,1h5.4l8,12.7L608.4,1z"/>
	<path d="M650.6,14.7c0-0.4,0-1-0.1-1.7c-0.1-0.7-0.3-1.5-0.5-2.3c-0.2-0.8-0.6-1.6-1.1-2.5s-1.1-1.6-1.8-2.3
		c-0.8-0.7-1.7-1.2-2.8-1.7c-1.1-0.4-2.5-0.6-4-0.6c-1.4,0-2.7,0.2-3.8,0.6s-2,0.9-2.8,1.5c-0.8,0.6-1.4,1.3-1.8,2.1
		c-0.4,0.8-0.7,1.7-0.8,2.6h-4.3c0.1-1.3,0.4-2.5,1-3.7c0.6-1.2,1.4-2.4,2.4-3.3c1.1-1,2.4-1.8,4-2.4c1.6-0.6,3.5-0.9,5.7-0.9
		c2.1,0,4,0.3,5.6,0.8c1.6,0.5,2.9,1.2,4.1,2.1c1.1,0.9,2.1,1.9,2.8,3c0.7,1.1,1.3,2.3,1.7,3.6c0.4,1.2,0.7,2.5,0.9,3.7
		c0.2,1.3,0.3,2.4,0.3,3.5c0,1.1-0.1,2.2-0.2,3.5c-0.1,1.3-0.4,2.6-0.8,3.8c-0.4,1.3-0.9,2.5-1.6,3.7c-0.7,1.2-1.6,2.3-2.7,3.2
		s-2.5,1.7-4.1,2.3c-1.6,0.6-3.5,0.9-5.7,0.9c-2.5,0-4.7-0.4-6.3-1.2c-1.7-0.8-3.1-1.8-4.1-3c-1.1-1.2-1.8-2.5-2.3-3.9
		c-0.5-1.4-0.8-2.7-0.9-4h4.3c0.1,0.6,0.3,1.4,0.6,2.4s0.8,1.9,1.5,2.8c0.7,0.9,1.7,1.7,2.9,2.3c1.2,0.6,2.7,1,4.6,1
		c2.1,0,3.8-0.4,5.2-1.1s2.4-1.6,3.1-2.7c0.8-1.1,1.3-2.2,1.6-3.5s0.5-2.3,0.6-3.4c0-0.5,0-1,0-1.5h-15.2v-3.6H650.6z"/>
	<path d="M657.8,4.6V1h25.3v3.6h-10.4v28.6h-4.3V4.6H657.8z"/>
	<path d="M686.2,33.2h-4.6L693.8,1h4.6l12.2,32.2H706l-3-8.3h-13.7L686.2,33.2z M701.7,21.2l-5.6-15.9l-5.6,15.9H701.7z"/>
	<path d="M718.6,33.2h-4.3V1h24.8v32.2h-4.3V4.6h-16.2V33.2z"/>
	<path d="M745.1,17.1c0-2.8,0.4-5.3,1.2-7.4c0.8-2.1,1.8-3.9,3.2-5.3c1.3-1.4,3-2.5,4.9-3.2s3.9-1.1,6.2-1.1c1.8,0,3.6,0.3,5.4,0.8
		c1.8,0.6,3.5,1.5,4.9,2.8c1.5,1.3,2.7,3.1,3.6,5.2c0.9,2.2,1.4,4.9,1.4,8.2c0,2.8-0.3,5.2-1,7.1c-0.7,1.9-1.5,3.5-2.6,4.8
		c-1,1.3-2.2,2.2-3.4,2.9s-2.4,1.2-3.5,1.5c-1.1,0.3-2.1,0.5-3,0.6c-0.9,0.1-1.5,0.1-1.8,0.1s-1,0-1.9-0.1c-0.9-0.1-1.9-0.3-3.1-0.6
		s-2.3-0.9-3.5-1.5c-1.2-0.7-2.4-1.7-3.4-2.9c-1-1.3-1.9-2.9-2.5-4.8C745.4,22.3,745.1,19.9,745.1,17.1z M749.7,17.1
		c0,1.3,0.1,2.7,0.4,4.3c0.3,1.6,0.8,3,1.5,4.4c0.8,1.4,1.9,2.5,3.3,3.4c1.4,0.9,3.3,1.4,5.6,1.4c0.4,0,0.9,0,1.6-0.1
		c0.7-0.1,1.4-0.2,2.2-0.5c0.8-0.3,1.6-0.7,2.4-1.3s1.6-1.3,2.3-2.3c0.7-1,1.2-2.2,1.7-3.7c0.4-1.5,0.6-3.3,0.6-5.5
		c0-1.9-0.2-3.7-0.6-5.3c-0.4-1.6-1.1-3.1-2-4.3c-0.9-1.2-2-2.1-3.4-2.8c-1.4-0.7-3-1-4.8-1c-1.6,0-3,0.3-4.2,0.8s-2.2,1.2-3,2
		c-0.8,0.8-1.4,1.7-1.9,2.7c-0.5,1-0.8,2-1.1,3c-0.2,1-0.4,1.9-0.5,2.8C749.7,15.7,749.7,16.5,749.7,17.1z"/>
	<path d="M795.9,1c2,0,3.6,0.3,4.8,0.8s2.2,1.1,2.9,1.9c0.7,0.8,1.2,1.7,1.5,2.6c0.3,1,0.4,1.9,0.4,2.9c0,0.9-0.1,1.7-0.4,2.5
		c-0.3,0.8-0.7,1.5-1.1,2.1c-0.5,0.6-1,1.1-1.7,1.5s-1.3,0.7-2.1,0.8v0.1c0.7,0.1,1.4,0.3,2.2,0.6c0.8,0.3,1.5,0.8,2.2,1.4
		c0.7,0.6,1.2,1.4,1.7,2.4c0.5,1,0.7,2.2,0.7,3.6c0,1.2-0.2,2.3-0.5,3.4c-0.3,1.1-0.9,2-1.8,2.9c-0.9,0.8-2,1.5-3.5,2
		c-1.5,0.5-3.4,0.8-5.7,0.8h-13.6V1H795.9z M786.1,14.6h8.7c1.2,0,2.2-0.1,3-0.4c0.8-0.3,1.4-0.6,1.9-1.1s0.8-1,1.1-1.6
		c0.2-0.6,0.3-1.2,0.3-1.9c0-0.5-0.1-1-0.2-1.6c-0.1-0.6-0.4-1.1-0.9-1.6c-0.4-0.5-1.1-0.9-1.9-1.3c-0.8-0.4-1.9-0.5-3.3-0.5h-8.9
		V14.6z M786.1,29.5h9c0.7,0,1.5-0.1,2.4-0.2c0.9-0.1,1.7-0.4,2.4-0.7s1.4-1,1.9-1.7c0.5-0.8,0.7-1.8,0.7-3.1c0-1-0.2-1.9-0.5-2.6
		c-0.4-0.7-0.9-1.3-1.5-1.7c-0.6-0.4-1.4-0.7-2.3-0.9c-0.9-0.2-1.9-0.3-3.1-0.3h-9V29.5z"/>
	<path d="M814.5,9.8h4.6v5h-4.6V9.8z M814.5,28.2h4.6v5h-4.6V28.2z"/>
</g>
<path d="M64.5,112.6h561.3l20.8-1.1v-0.8l-20.8-1.1H64.5V112.6z M622.6,94.8c3.6,3.9,7.3,7.2,10.9,9.9c3.7,2.7,7.7,4.7,12.2,6v0.6
	c-4.4,1.3-8.5,3.3-12.2,6c-3.7,2.7-7.3,6-10.9,9.9l3.1,3c3.3-4.5,6.7-8.2,10.2-10.9c3.5-2.8,7.9-5.4,12.9-7.5v-1.7
	c-5.1-2.2-9.4-4.6-12.9-7.4c-3.5-2.8-6.9-6.5-10.2-11L622.6,94.8z"/>
<path d="M64.5,169.6h521.3l20.8-1.1v-0.8l-20.8-1.1H64.5V169.6z M582.6,151.8c3.6,3.9,7.3,7.2,10.9,9.9s7.7,4.7,12.2,6v0.6
	c-4.4,1.3-8.5,3.3-12.2,6c-3.7,2.7-7.3,6-10.9,9.9l3.1,3c3.3-4.5,6.7-8.2,10.2-10.9c3.5-2.8,7.9-5.4,12.9-7.5v-1.7
	c-5.1-2.2-9.4-4.6-12.9-7.4c-3.5-2.8-6.9-6.5-10.2-11L582.6,151.8z"/>
</svg>
