<svg width="284" height="136" viewBox="0 0 284 136" fill="none" xmlns="http://www.w3.org/2000/svg">
<path d="M190.56 10.8432C203.283 24.5445 216.128 36.1662 229.095 45.7082C242.062 55.2502 256.375 62.3455 272.034 66.9942V69.1962C256.375 73.8449 242.062 80.9402 229.095 90.4822C216.128 100.024 203.283 111.646 190.56 125.347L201.57 135.99C213.069 120.087 225.058 107.242 237.536 97.4552C250.014 87.4239 265.183 78.6159 283.044 71.0312V65.1592C265.183 57.5745 250.014 48.8889 237.536 39.1022C225.058 29.0709 213.069 16.1035 201.57 0.200195L190.56 10.8432ZM4.81262e-07 73.6002H201.937L275.337 69.5632V66.6272L201.937 62.5902L0 62.5902L4.81262e-07 73.6002Z" fill="#1E1C1B"/>
</svg>
