<svg width="323" height="27" viewBox="0 0 323 27" fill="none" xmlns="http://www.w3.org/2000/svg">
<path d="M304.856 2.088C307.352 4.776 309.872 7.056 312.416 8.928C314.96 10.8 317.768 12.192 320.84 13.104V13.536C317.768 14.448 314.96 15.84 312.416 17.712C309.872 19.584 307.352 21.864 304.856 24.552L307.016 26.64C309.272 23.52 311.624 21 314.072 19.08C316.52 17.112 319.496 15.384 323 13.896V12.744C319.496 11.256 316.52 9.552 314.072 7.632C311.624 5.664 309.272 3.12 307.016 0L304.856 2.088ZM9.44167e-08 14.4002L307.088 14.4L321.488 13.608V13.032L307.088 12.24L0 12.2402L9.44167e-08 14.4002Z" fill="#1E1C1B"/>
</svg>
