<!-- Generator: Adobe Illustrator 23.0.2, SVG Export Plug-In  -->
<svg version="1.1" xmlns="http://www.w3.org/2000/svg" xmlns:xlink="http://www.w3.org/1999/xlink" x="0px" y="0px" width="194.8px"
	 height="56.9px" viewBox="0 0 194.8 56.9" style="enable-background:new 0 0 194.8 56.9;" xml:space="preserve">
<defs>
</defs>
<g>
	<path d="M17.4,23.4c-0.6-0.3-2.4-1.4-3-1.7c-2.8-1.6-4.7-3.4-4.7-9.6c0-3.9,0.4-6,2.5-6c2.3,0,2.9,1.6,2.9,6.8c0,1.6-0.4,4.5-0.5,6
		l8.4-0.9c0.4-1.8,0.7-3.8,0.7-5.7C23.7,4.2,19.7,0,12,0C4.2,0,0,4.9,0,14.2c0,6.4,1.9,11.9,7.3,15c0.6,0.4,1.9,1.1,2.5,1.4
		c4.4,2.6,6,4.6,6,12.4c0,6.1-1,7.1-2.7,7.1c-2.2,0-3.1-1.8-3.1-7.9c0-2.4,0.4-5.5,0.6-7.6L2.1,35c-0.6,1.9-1.2,5.5-1.2,7.7
		c0,10.7,4.6,14.2,12.2,14.2c9,0,12.8-5.4,12.8-15.5C25.8,31.5,22.4,26.2,17.4,23.4"/>
	<path d="M38.7,47.1V21.6h5.1v-4.9h-5.1V4.7h-8.5L30,16.7h-4v4.9H30c-0.1,19.9-0.2,26.1-0.2,27.4c0,5.6,2.4,7.4,7.7,7.4
		c3,0,5.9-0.9,6.9-1.8v-5.1c-1.1,0.4-2.4,0.6-3.5,0.6C39.3,50.1,38.7,49.1,38.7,47.1"/>
	<path d="M59.5,16c-2.6,0-3.7,1.4-4.7,4.4v-3.8h-8.4v39.1H55V30c0-6.5,0.4-7.4,1.7-7.4c1.4,0,1.8,1.4,1.8,4.1c0,2.1-0.8,5.5-1.2,7.3
		l7.1-0.3c0.8-2.4,1.6-5.5,1.6-8.4C65.9,18.7,63.1,16,59.5,16"/>
	<path d="M87.4,37.7c0.2-0.9,0.4-2.4,0.4-3.4C87.8,22,85.1,16,77.9,16c-7.2,0-10.6,4.7-10.6,21.9c0,15.8,3.4,18.5,11.1,18.5
		c6.1,0,9.2-3,9.2-10.6c0-1.1-0.2-4.1-0.4-5l-7.1-0.1c0.1,1.1,0.2,1.8,0.2,2.8c0,7.1-0.4,7.9-2.1,7.9c-2.1,0-2.3-1.7-2.3-9.9v-3.8
		H87.4z M75.8,32.7v-3c0.4-7.6,0.5-8.8,2.1-8.8c1.4,0,1.6,1.1,1.9,7.7c0.1,1.1,0,3.1-0.1,4.1H75.8z"/>
	<path d="M110.3,37.7c0.2-0.9,0.4-2.4,0.4-3.4c0-12.4-2.7-18.4-9.9-18.4c-7.2,0-10.6,4.7-10.6,21.9c0,15.8,3.4,18.5,11.2,18.5
		c6.1,0,9.2-3,9.2-10.6c0-1.1-0.2-4.1-0.4-5l-7.1-0.1c0.1,1.1,0.2,1.8,0.2,2.8c0,7.1-0.4,7.9-2.1,7.9c-2.1,0-2.3-1.7-2.3-9.9v-3.8
		H110.3z M98.7,32.7v-3c0.4-7.6,0.5-8.8,2.1-8.8c1.4,0,1.6,1.1,1.9,7.7c0.1,1.1,0,3.1-0.1,4.1H98.7z"/>
	<path d="M123.8,47.1V21.6h5.1v-4.9h-5.1V4.7h-8.5l-0.1,11.9h-4v4.9h3.9c-0.1,19.9-0.2,26.1-0.2,27.4c0,5.6,2.4,7.4,7.7,7.4
		c3,0,5.9-0.9,6.9-1.8v-5.1c-1.1,0.4-2.4,0.6-3.5,0.6C124.3,50.1,123.8,49.1,123.8,47.1"/>
	<path d="M151.5,48V25.2c0-7.1-3.4-9.2-10-9.2c-6.5,0-9.7,3-9.7,8.6c0,2.6,0.6,3.8,0.9,4.9l7.1-0.2c-0.3-1.2-0.4-3.1-0.4-4.1
		c0-2.7,0.3-3.6,1.9-3.6c1.3,0,2.4,1.1,2.4,4.4v5.9c-1.6,0.3-2.9,0.7-5,1.3c-4.6,1.4-7.7,3.7-7.7,11.6c0,10.3,4.9,11.7,8.8,11.7
		c2.4,0,4.6-0.8,5.9-3c0.5,1.6,1.6,3,4.4,3c1.7,0,3.4-0.6,4.3-0.9v-5.8c-0.5,0.2-0.9,0.3-1.4,0.3C151.9,50,151.5,49.3,151.5,48
		 M143.7,46.6c0,2.2-0.4,4-2,4c-1.4,0-1.9-1.4-1.9-5.3c0-5.3,0.7-6.4,3.9-7.8V46.6z"/>
	<path d="M169.3,16c-2.6,0-3.7,1.4-4.7,4.4v-3.8h-8.4v39.1h8.6V30c0-6.5,0.4-7.4,1.7-7.4c1.4,0,1.8,1.4,1.8,4.1
		c0,2.1-0.8,5.5-1.2,7.3l7.1-0.3c0.8-2.4,1.6-5.5,1.6-8.4C175.7,18.7,172.9,16,169.3,16"/>
	<path d="M191.3,50.1c-1.6,0-2.1-1-2.1-3V21.6h5.1v-4.9h-5.1V4.7h-8.5l-0.1,11.9h-4v4.9h3.9c-0.1,19.9-0.2,26.1-0.2,27.4
		c0,5.6,2.4,7.4,7.7,7.4c3,0,5.9-0.9,6.9-1.8v-5.1C193.7,49.9,192.3,50.1,191.3,50.1"/>
</g>
</svg>
