<svg width="320" height="501" viewBox="0 0 320 501" fill="none" xmlns="http://www.w3.org/2000/svg">
<path d="M22.337 463.018C16.5961 451.081 5.29548 448.663 -0.480373 448.529C-0.767665 448.522 -0.999995 448.29 -0.999995 448.002L-0.999994 436.982L-0.999926 3.29724e-05L320 6.10352e-05L320 448.5C299.285 448.5 294.586 470.687 287.188 486.07C281.27 498.376 272.062 500.588 266.03 500.588C245.315 500.588 241.616 478.401 234.218 463.018C228.299 450.712 218.062 448.5 213.059 448.5C192.345 448.5 188.646 470.687 181.247 486.07C175.329 498.376 165.533 500.588 160.089 500.587C139.374 500.587 135.675 478.401 128.277 463.018C122.359 450.712 112.121 448.5 107.119 448.5C86.404 448.5 82.7049 470.687 75.3068 486.07C69.3884 498.376 59.4458 500.588 54.1488 500.587C33.4341 500.587 29.7351 478.401 22.337 463.018Z" fill="black"/>
</svg>
