<!-- Generator: Adobe Illustrator 23.0.2, SVG Export Plug-In  -->
<svg version="1.1" xmlns="http://www.w3.org/2000/svg" xmlns:xlink="http://www.w3.org/1999/xlink" x="0px" y="0px" width="299.6px"
	 height="241.5px" viewBox="0 0 299.6 241.5" style="enable-background:new 0 0 299.6 241.5;" xml:space="preserve">
<defs>
</defs>
<g>
	<path d="M124.5,175.1v-4.3c3.7,0,7.5-0.1,11.2-0.4l0.3,4.2C132.2,175,128.3,175.1,124.5,175.1z"/>
	<path d="M158.7,171.8l-0.8-4.2c7.3-1.4,14.6-3.4,21.6-5.8l1.4,4C173.6,168.3,166.2,170.3,158.7,171.8z M202,157.1l-1.9-3.8
		c6.7-3.3,13.2-7.1,19.3-11.2l2.4,3.5C215.5,149.9,208.8,153.7,202,157.1z M240,131.7l-2.8-3.2c5.6-4.9,10.9-10.2,15.8-15.8l3.2,2.8
		C251.2,121.2,245.7,126.6,240,131.7z M270.1,97.3l-3.5-2.4c4.1-6.2,7.9-12.7,11.2-19.3l3.8,1.9C278.2,84.3,274.4,91,270.1,97.3z
		 M290.4,56.3l-4-1.4c2.4-7,4.3-14.3,5.8-21.6l4.2,0.8C294.8,41.7,292.8,49.1,290.4,56.3z"/>
	<path d="M299.3,11.5l-4.2-0.3c0.2-3.7,0.4-7.5,0.4-11.2h4.3C299.6,3.8,299.5,7.7,299.3,11.5z"/>
</g>
<g>
	<rect x="64.8" y="79.2" transform="matrix(0.7071 -0.7071 0.7071 0.7071 -101.7643 99.3193)" width="8.5" height="186.7"/>
	<rect x="-24.3" y="168.2" transform="matrix(0.7071 -0.7071 0.7071 0.7071 -101.7643 99.3193)" width="186.7" height="8.5"/>
</g>
</svg>
