<!-- Generator: Adobe Illustrator 23.0.2, SVG Export Plug-In  -->
<svg version="1.1" xmlns="http://www.w3.org/2000/svg" xmlns:xlink="http://www.w3.org/1999/xlink" x="0px" y="0px" width="228.9px"
	 height="92px" viewBox="0 0 228.9 92" style="enable-background:new 0 0 228.9 92;" xml:space="preserve">
<defs>
</defs>
<path d="M126,49.7h48l49.7-2.7v-2L174,42.3h-48V49.7z M166.3,7.2c8.6,9.3,17.3,17.2,26.1,23.6c8.8,6.5,18.5,11.3,29.1,14.4v1.5
	c-10.6,3.1-20.3,8-29.1,14.4c-8.8,6.5-17.5,14.3-26.1,23.6l7.5,7.2c7.8-10.8,15.9-19.5,24.4-26.1c8.5-6.8,18.7-12.8,30.8-17.9v-4
	c-12.1-5.1-22.4-11-30.8-17.7c-8.5-6.8-16.6-15.6-24.4-26.4L166.3,7.2z"/>
<path d="M0,49.7h48L97.7,47v-2L48,42.3H0V49.7z M40.3,7.2c8.6,9.3,17.3,17.2,26.1,23.6c8.8,6.5,18.5,11.3,29.1,14.4v1.5
	c-10.6,3.1-20.3,8-29.1,14.4c-8.8,6.5-17.5,14.3-26.1,23.6l7.5,7.2c7.8-10.8,15.9-19.5,24.4-26.1c8.5-6.8,18.7-12.8,30.8-17.9v-4
	c-12.1-5.1-22.4-11-30.8-17.7C63.7,19.6,55.5,10.8,47.7,0L40.3,7.2z"/>
</svg>
