<!-- Generator: Adobe Illustrator 23.0.2, SVG Export Plug-In  -->
<svg version="1.1" xmlns="http://www.w3.org/2000/svg" xmlns:xlink="http://www.w3.org/1999/xlink" x="0px" y="0px" width="674.6px"
	 height="184.6px" viewBox="0 0 674.6 184.6" style="enable-background:new 0 0 674.6 184.6;" xml:space="preserve">
<defs>
</defs>
<g>
	<path d="M468,99.8h96.3l99.8-5.5v-4l-99.8-5.5H468V99.8z M548.8,14.5c17.3,18.6,34.8,34.4,52.4,47.4c17.6,13,37.1,22.6,58.4,28.9v3
		c-21.3,6.3-40.8,16-58.4,28.9c-17.6,13-35.1,28.8-52.4,47.4l15,14.5c15.6-21.6,31.9-39.1,48.9-52.4c17-13.6,37.6-25.6,61.9-35.9v-8
		c-24.3-10.3-44.9-22.1-61.9-35.4c-17-13.6-33.3-31.3-48.9-52.9L548.8,14.5z"/>
	<path d="M234,99.8h96.3l99.8-5.5v-4l-99.8-5.5H234V99.8z M314.8,14.5c17.3,18.6,34.8,34.4,52.4,47.4c17.6,13,37.1,22.6,58.4,28.9v3
		c-21.3,6.3-40.8,16-58.4,28.9c-17.6,13-35.1,28.8-52.4,47.4l15,14.5c15.6-21.6,31.9-39.1,48.9-52.4c17-13.6,37.6-25.6,61.9-35.9v-8
		c-24.3-10.3-44.9-22.1-61.9-35.4c-17-13.6-33.3-31.3-48.9-52.9L314.8,14.5z"/>
	<path d="M0,99.8h96.3l99.8-5.5v-4l-99.8-5.5H0V99.8z M80.8,14.5c17.3,18.6,34.8,34.4,52.4,47.4c17.6,13,37.1,22.6,58.4,28.9v3
		c-21.3,6.3-40.8,16-58.4,28.9c-17.6,13-35.1,28.8-52.4,47.4l15,14.5c15.6-21.6,31.9-39.1,48.9-52.4c17-13.6,37.6-25.6,61.9-35.9v-8
		c-24.3-10.3-44.9-22.1-61.9-35.4c-17-13.6-33.3-31.3-48.9-52.9L80.8,14.5z"/>
</g>
</svg>
