<svg width="207" height="186" viewBox="0 0 207 186" fill="none" xmlns="http://www.w3.org/2000/svg">
<path d="M80.838 14.871C98.1367 33.5004 115.602 49.302 133.233 62.276C150.864 75.25 170.325 84.8973 191.616 91.218V94.212C170.325 100.533 150.864 110.18 133.233 123.154C115.602 136.128 98.1367 151.93 80.838 170.559L95.808 185.03C111.443 163.407 127.744 145.942 144.71 132.635C161.676 118.996 182.301 107.02 206.586 96.707V88.723C182.301 78.4104 161.676 66.6007 144.71 53.294C127.744 39.6547 111.443 22.0234 95.808 0.400024L80.838 14.871ZM6.5436e-07 100.2H96.307L196.107 94.711V90.719L96.307 85.23H0L6.5436e-07 100.2Z" fill="#1E1C1B"/>
</svg>