<svg width="251" height="61" viewBox="0 0 251 61" fill="none" xmlns="http://www.w3.org/2000/svg">
<path d="M247.316 27.7586C242.574 32.1966 238.551 36.6773 235.249 41.2006C231.946 45.724 229.49 50.7168 227.881 56.1789L227.119 56.1789C225.51 50.7167 223.054 45.724 219.751 41.2007C216.449 36.6773 212.426 32.1966 207.684 27.7586L204 31.5992C209.505 35.6105 213.95 39.7924 217.338 44.1451C220.81 48.4977 223.859 53.7892 226.484 60.0195L228.516 60.0195C231.141 53.7892 234.148 48.4977 237.535 44.1451C241.007 39.7924 245.495 35.6105 251 31.5992L247.316 27.7586ZM225.595 0.490233L225.595 31.7272L226.992 57.3311L228.008 57.3311L229.405 31.7272L229.405 0.490233L225.595 0.490233Z" fill="#1E1C1B"/>
<path d="M179.316 27.7586C174.574 32.1966 170.551 36.6773 167.249 41.2006C163.946 45.724 161.49 50.7168 159.881 56.1789L159.119 56.1789C157.51 50.7167 155.054 45.724 151.751 41.2007C148.449 36.6773 144.426 32.1966 139.684 27.7586L136 31.5992C141.505 35.6105 145.95 39.7924 149.338 44.1451C152.81 48.4977 155.859 53.7892 158.484 60.0195L160.516 60.0195C163.141 53.7892 166.148 48.4977 169.535 44.1451C173.007 39.7924 177.495 35.6105 183 31.5992L179.316 27.7586ZM157.595 0.490233L157.595 31.7272L158.992 57.3311L160.008 57.3311L161.405 31.7272L161.405 0.490233L157.595 0.490233Z" fill="#1E1C1B"/>
<path d="M111.316 27.7586C106.574 32.1966 102.551 36.6773 99.2487 41.2006C95.9459 45.724 93.4901 50.7168 91.8811 56.1789L91.1189 56.1789C89.5099 50.7167 87.0541 45.724 83.7514 41.2007C80.4487 36.6773 76.4261 32.1966 71.6838 27.7586L68 31.5992C73.5045 35.6105 77.9505 39.7924 81.3378 44.1451C84.8099 48.4977 87.8586 53.7892 90.4838 60.0195L92.5162 60.0195C95.1414 53.7892 98.1477 48.4977 101.535 44.1451C105.007 39.7924 109.495 35.6105 115 31.5992L111.316 27.7586ZM89.5946 0.490233L89.5946 31.7272L90.9919 57.3311L92.0081 57.3311L93.4054 31.7272L93.4054 0.490233L89.5946 0.490233Z" fill="#1E1C1B"/>
<path d="M43.3162 27.7586C38.5739 32.1966 34.5514 36.6773 31.2487 41.2006C27.9459 45.724 25.4901 50.7168 23.8811 56.1789L23.1189 56.1789C21.5099 50.7167 19.0541 45.724 15.7514 41.2007C12.4487 36.6773 8.42613 32.1966 3.68379 27.7586L2.45488e-06 31.5992C5.50451 35.6105 9.95045 39.7924 13.3378 44.1451C16.8099 48.4977 19.8586 53.7892 22.4838 60.0195L24.5162 60.0195C27.1414 53.7892 30.1477 48.4977 33.5351 44.1451C37.0072 39.7924 41.4955 35.6105 47 31.5992L43.3162 27.7586ZM21.5946 0.490233L21.5946 31.7272L22.9919 57.3311L24.0081 57.3311L25.4054 31.7272L25.4054 0.490233L21.5946 0.490233Z" fill="#1E1C1B"/>
</svg>
