<svg version="1.1" xmlns="http://www.w3.org/2000/svg" xmlns:xlink="http://www.w3.org/1999/xlink" x="0px" y="0px" width="334.4px"
   height="38.6px" viewBox="0 0 334.4 38.6" style="enable-background:new 0 0 334.4 38.6;" xml:space="preserve">
<defs>
</defs>
<path d="M0,20.8h311.3l20.8-1.1v-0.8l-20.8-1.1H0V20.8z M308.1,3c3.6,3.9,7.3,7.2,10.9,9.9s7.7,4.7,12.2,6v0.6
  c-4.4,1.3-8.5,3.3-12.2,6c-3.7,2.7-7.3,6-10.9,9.9l3.1,3c3.3-4.5,6.7-8.2,10.2-10.9c3.5-2.8,7.9-5.4,12.9-7.5v-1.7
  c-5.1-2.2-9.4-4.6-12.9-7.4c-3.5-2.8-6.9-6.5-10.2-11L308.1,3z"/>
</svg>