<!-- Generator: Adobe Illustrator 23.0.2, SVG Export Plug-In  -->
<svg version="1.1" xmlns="http://www.w3.org/2000/svg" xmlns:xlink="http://www.w3.org/1999/xlink" x="0px" y="0px" width="394px"
	 height="334.7px" viewBox="0 0 394 334.7" style="enable-background:new 0 0 394 334.7;" xml:space="preserve">
<defs>
</defs>
<g>
	<path d="M269.4,269.4c-5.9,0-11.8-0.2-17.6-0.6l0.4-6.5c5.7,0.4,11.5,0.6,17.2,0.6V269.4z"/>
	<path d="M216.9,264.3c-11.5-2.3-23-5.3-34.1-9.1l2.1-6.2c10.8,3.7,22,6.7,33.2,8.9L216.9,264.3z M150.2,241.7
		c-10.5-5.2-20.8-11.1-30.5-17.7l3.6-5.4c9.5,6.4,19.5,12.2,29.8,17.2L150.2,241.7z M91.8,202.6c-8.8-7.7-17.2-16.1-24.9-24.9
		l4.9-4.3c7.5,8.6,15.7,16.8,24.3,24.3L91.8,202.6z M45.4,149.7c-6.5-9.7-12.5-20-17.6-30.5l5.9-2.9c5.1,10.2,10.9,20.2,17.2,29.7
		L45.4,149.7z M14.3,86.7c-3.8-11.1-6.8-22.5-9.1-34l6.4-1.3c2.2,11.2,5.2,22.4,8.9,33.2L14.3,86.7z"/>
	<path d="M0.6,17.6C0.2,11.8,0,5.9,0,0h6.5c0,5.7,0.2,11.5,0.6,17.2L0.6,17.6z"/>
</g>
<g>
	<rect x="231.6" y="261.4" transform="matrix(0.7071 -0.7071 0.7071 0.7071 -92.6861 307.5849)" width="186.7" height="8.5"/>
	<rect x="320.7" y="172.3" transform="matrix(0.7071 -0.7071 0.7071 0.7071 -92.686 307.5857)" width="8.5" height="186.7"/>
</g>
</svg>
