<svg width="27" height="30" viewBox="0 0 27 30" fill="none" xmlns="http://www.w3.org/2000/svg">
<path d="M24.953 11.5822C22.3178 14.0607 20.0826 16.5631 18.2474 19.0892C16.4121 21.6154 15.0475 24.4037 14.1534 27.4542L13.7299 27.4542C12.8358 24.4037 11.4711 21.6154 9.63587 19.0892C7.80064 16.5631 5.56542 14.0607 2.93021 11.5822L0.88322 13.7271C3.94194 15.9673 6.41245 18.3028 8.29474 20.7336C10.2241 23.1644 11.9181 26.1196 13.3769 29.599L14.5063 29.599C15.9651 26.1196 17.6356 23.1644 19.5179 20.7336C21.4472 18.3028 23.9413 15.9673 27 13.7271L24.953 11.5822ZM12.8828 -5.23327e-07L12.8828 13.7986L13.6593 28.0976L14.224 28.0976L15.0004 13.7986L15.0004 -5.24519e-07L12.8828 -5.23327e-07Z" fill="#1E1C1B"/>
</svg>
