<!-- Generator: Adobe Illustrator 23.0.2, SVG Export Plug-In  -->
<svg version="1.1" xmlns="http://www.w3.org/2000/svg" xmlns:xlink="http://www.w3.org/1999/xlink" x="0px" y="0px" width="228.4px"
	 height="76.7px" viewBox="0 0 228.4 76.7" style="enable-background:new 0 0 228.4 76.7;" xml:space="preserve">
<style type="text/css">
	.st0{fill-rule:evenodd;clip-rule:evenodd;}
</style>
<defs>
</defs>
<g>
	<g>
		<path d="M187.3,19.7V4.7h-3.1L178,14.9V4.7h-3v15.1h3h0l6.2-10.2v10.2H187.3L187.3,19.7z M177.2,1.8c2.3,1.8,5.6,1.8,7.9,0
			L183.9,0c-1.7,1.2-3.7,1.2-5.4,0L177.2,1.8z"/>
		<path d="M88,14.7V9.5c0-3.3-1.8-5.1-5-5.1c-1.2,0-3.3,0.5-4.2,1.2c-0.3-0.5-0.6-1-1.2-1.2l-1.9,1.8c0.7,0.5,0.8,1.5,0.8,1.9v16.5
			h3.1v-5.3c0.9,0.5,2.4,0.6,3.2,0.6C85.7,20,88,18.1,88,14.7L88,14.7z M84.9,15.1c0,1.3-1.3,2.1-2.5,2.1c-1,0-2.1-0.4-2.7-0.8V8.5
			V8.2c0.7-0.7,2.1-1.1,2.9-1.1c1.2,0,2.3,0.9,2.3,2.2V15.1z"/>
		<path d="M116.3,19.7V4.6H106V14c0,1.9-1.2,3.5-2.8,3.5c-0.8,0-1.9-0.5-1.9-1.7V9.5c0-3.1-1.7-5.1-5.2-5.1c-2.4,0-4.3,1-5.3,2.1
			l1.7,2c1-1,2.5-1.4,3.3-1.4c1,0,2.4,0.5,2.4,1.9v1.6h-2.6c-3.7,0-5.2,2.3-5.2,4.8c0,2.4,1.3,4.7,5,4.7c1.1,0,2.6-0.6,3.5-1.5
			c1.5,1.4,2.9,1.6,4.4,1.5c3.6-0.1,5.8-2,5.8-6.2V7.2h4.3l0,12.5H116.3L116.3,19.7z M98,16.3c-0.7,1-2.1,1.2-3.1,1.1
			c-0.8-0.1-1.5-1-1.5-1.8c0-1.1,0.7-2.3,2.3-2.3l2.3,0V16.3z"/>
		<polygon points="157.7,19.8 152.1,11.8 157.4,4.7 153.8,4.7 149.9,10.6 147.9,10.6 147.9,4.6 144.9,4.6 144.9,19.8 147.9,19.8 
			147.9,13.2 149.8,13.2 154.1,19.8 		"/>
		<path d="M119.5,19.8V4.6h3.1v5.1h2.2c3.7,0,5.6,2.2,5.6,4.8c0,2.6-1.8,5.2-5.5,5.2L119.5,19.8L119.5,19.8z M122.6,17.2l2.6,0
			c1.4,0,1.9-1.5,1.9-2.5c0-1-0.6-2.3-2-2.3h-2.6V17.2z"/>
		<path d="M142.9,18l-1.3-2.3c-1.8,1.3-2.8,1.6-3.7,1.6c-1.3,0-2.5-0.6-2.5-2V9.6c0-1.3,1.3-2.3,2.7-2.3c0.9,0,2.2,0.6,3.1,1.5
			l1.6-2.1c-1.1-1.3-2.7-2.3-5.1-2.3c-3.1,0-5.5,1.9-5.5,5.2v5.7c0,3.2,2.5,4.7,5.5,4.7C140.3,20,142,18.8,142.9,18z"/>
		<polygon points="171.8,19.7 171.8,4.7 168.8,4.7 162.5,14.9 162.5,4.7 159.5,4.7 159.5,19.7 162.5,19.7 162.6,19.7 168.8,9.5 
			168.8,19.7 		"/>
		<path d="M75.6,0h-3.5l-2.7,9c0,0.2-0.1,0.3-0.2,0.5c0,0.2-0.1,0.3-0.1,0.5c0,0.1,0,0.2,0,0.2c0,0,0-0.1,0-0.2
			c0-0.1-0.1-0.3-0.1-0.4C69,9.4,69,9.2,68.9,9l-4-9h-3.6l6.4,14.1l-0.4,1c-0.5,1.1-1.9,2.4-4.3,2.5l0.4,2.4
			c3.5,0.1,5.9-1.5,6.8-4.1L75.6,0z"/>
		<path d="M228.4,45.3V30.2h-3.1l-6.2,10.3V30.2h-3v15.1h3h0l6.2-10.2v10.2H228.4L228.4,45.3z M218.3,27.4c2.3,1.8,5.6,1.8,7.9,0
			l-1.3-1.8c-1.7,1.2-3.7,1.2-5.4,0L218.3,27.4z"/>
		<rect x="209.9" y="30.2" width="3.1" height="15.1"/>
		<path d="M197.2,45.4V30.2h3.1l0,5.1h2.2c3.7,0,5.6,2.2,5.6,4.8c0,2.6-1.8,5.2-5.5,5.2H197.2L197.2,45.4z M200.4,42.8l2.6,0
			c1.4,0,1.9-1.5,1.9-2.5c0-1-0.6-2.3-2-2.3h-2.6V42.8z"/>
		<path d="M79.1,40.3v-5.2c0-3.3-1.5-5.1-4.8-5.1c-0.9,0-1.8,0.3-2.5,0.7v-2.8h-3.1v2.8C68,30.2,67,30,66.2,30
			c-3.2,0-4.8,1.9-4.8,5.1v5.2c0,3.4,2.1,5.2,5,5.2c0.7,0,1.9-0.4,2.2-0.6v5.3h3.1v-5.3c0.3,0.3,1.5,0.6,2.2,0.6
			C77,45.6,79.1,43.7,79.1,40.3L79.1,40.3z M68.7,33.6L68.7,33.6L68.7,33.6L68.7,33.6L68.7,33.6L68.7,33.6L68.7,33.6L68.7,33.6
			L68.7,33.6L68.7,33.6L68.7,33.6L68.7,33.6L68.7,33.6v0.1v0v0v0v0v0v0v0v0v0v0v0v0v0v0v0v0v0v0v0v0v0v0v0v0v0v0v0v0v0v0v0v0v0v0v0
			v0v0v0v0v0v0v0v0v0v0v0v0v0v0v0v0v7.8c-0.3,0.5-0.8,0.8-1.8,0.8c-1.2,0-2.3-0.8-2.3-2.1v-5.8c0-1.3,0.9-2.2,2.1-2.2
			C67.5,32.7,68.4,33.2,68.7,33.6L68.7,33.6z M75.9,40.6c0,1.3-1.1,2.1-2.3,2.1c-1,0-1.5-0.4-1.8-0.8v-7.8v0v0v0v0v0v0v0v0v0v0v0v0
			v0v0v0v0v0v0v0v0v0v0v0v0v0v0v0v0v0v0v0v0v0v0v0v0v0v0v0v0v0v0v0v0v0v0v0v0v0v0v0v0v0v0v0v0v0v0v0v0v0v0v0v0
			c0.3-0.5,1.2-0.9,2-0.9c1.2,0,2.1,0.9,2.1,2.2V40.6z"/>
		<path d="M93.1,43.6l-1.3-2.4c-1.5,1.2-3,1.6-4.2,1.6c-1.5,0-2.7-0.8-2.7-2.4V39h7.8v-3.7c0-3.8-2.4-5.3-5.3-5.3
			c-3.3,0-5.7,1.7-5.7,5.5v5c0,3.4,2.2,5.1,5.6,5.1C89.8,45.6,91.3,44.8,93.1,43.6L93.1,43.6z M89.6,34.5v1.9h-4.7v-1.7
			c0-1.3,1.2-2.1,2.5-2.1C88.3,32.6,89.6,33.2,89.6,34.5z"/>
		<path d="M107.8,42.8V30.2H97.5v8.3c0,1.9-1.1,4.2-2.8,4.2h-0.3V49h3v-3.7h9.1V49h3.1v-6.2H107.8L107.8,42.8z M99.2,42.8
			c0.8-0.8,1.3-2.5,1.2-4.1v-5.9h4.3l0,9.9H99.2z"/>
		<polygon points="194,45.3 194,30.2 191,30.2 191,36.1 184.8,36.1 184.8,30.2 181.7,30.2 181.7,45.3 184.8,45.3 184.8,38.7 
			191,38.7 191,45.3 		"/>
		<path d="M137.1,40.3v-5.2c0-3.3-1.8-5.1-5-5.1c-1.2,0-3.3,0.5-4.2,1.2c-0.3-0.5-0.6-1-1.2-1.2l-1.9,1.8c0.7,0.5,0.8,1.5,0.8,1.9
			v16.5h3.1v-5.3c0.9,0.5,2.4,0.6,3.2,0.6C134.8,45.6,137.1,43.7,137.1,40.3L137.1,40.3z M133.9,40.7c0,1.3-1.3,2.1-2.5,2.1
			c-1,0-2.1-0.4-2.8-0.8v-7.8v-0.3c0.7-0.7,2.1-1.1,2.9-1.1c1.2,0,2.3,0.9,2.3,2.2V40.7z"/>
		<path d="M165.3,45.4V30.2H155v9.4c0,1.9-1.2,3.5-2.8,3.5c-0.8,0-1.9-0.5-1.9-1.7v-6.4c0-3.1-1.7-5.1-5.2-5.1c-2.4,0-4.3,1-5.3,2.1
			l1.7,2c1-1,2.5-1.4,3.3-1.4c1,0,2.4,0.5,2.4,1.9v1.6h-2.6c-3.7,0-5.2,2.3-5.2,4.8c0,2.4,1.3,4.7,5,4.7c1.1,0,2.6-0.6,3.5-1.5
			c1.5,1.4,2.9,1.6,4.4,1.5c3.6-0.1,5.8-2,5.8-6.2v-6.7h4.3l0,12.5H165.3L165.3,45.4z M147,41.9c-1.2,1.5-4.6,1.7-4.6-0.8
			c0-1.1,0.7-2.3,2.3-2.3l2.3,0V41.9z"/>
		<path d="M168.5,45.4V30.2h3.1l0,5.1h2.2c3.7,0,5.6,2.2,5.6,4.8c0,2.6-1.8,5.2-5.5,5.2H168.5L168.5,45.4z M171.6,42.8l2.6,0
			c1.4,0,1.9-1.5,1.9-2.5c0-1-0.6-2.3-2-2.3h-2.6V42.8z"/>
		<path d="M122.9,43.6l-1.3-2.4c-1.5,1.2-3,1.6-4.2,1.6c-1.5,0-2.7-0.8-2.7-2.4V39h7.8v-3.7c0-3.8-2.4-5.3-5.3-5.3
			c-3.3,0-5.7,1.7-5.7,5.5v5c0,3.4,2.2,5.1,5.6,5.1C119.6,45.6,121.1,44.8,122.9,43.6L122.9,43.6z M119.4,34.5v1.9h-4.7v-1.7
			c0-1.3,1.2-2.1,2.5-2.1C118,32.6,119.4,33.2,119.4,34.5z"/>
		<path d="M74.3,55.8h-3.4l-3.1,11.7c0,0,0-0.9-0.3-2.1l-2.6-9.6l-3.5,0c0,0,4,12.8,5,15c-0.5,2-1.5,3.3-3.8,3.5l0.3,2.3
			c3.5,0,5.4-1.9,6.2-4.2L74.3,55.8z"/>
		<polygon points="88.6,70.9 88.6,55.9 85.6,55.9 85.6,61.7 79.4,61.7 79.4,55.9 76.3,55.9 76.3,70.9 79.4,70.9 79.4,64.3 
			85.6,64.3 85.6,70.9 		"/>
		<polygon points="104.1,70.9 104.1,55.9 101.1,55.9 94.9,66.1 94.9,55.9 91.8,55.9 91.8,70.9 94.9,70.9 94.9,70.9 101.1,60.7 
			101.1,70.9 		"/>
		<path d="M107.3,70.9V55.9h5.4c3.7,0,4.9,2.3,4.8,4c-0.1,1.7-1,2.6-1.8,3c0.9,0.3,2.6,1.4,2.6,3.6c0,2.2-1.6,4.5-5.3,4.5H107.3
			L107.3,70.9z M110.4,58.5v3.3h2.3c1.3,0,1.6-0.9,1.6-1.6c0-0.8-0.5-1.6-1.5-1.6L110.4,58.5L110.4,58.5z M110.4,68.3l2.6,0
			c1.4,0,1.9-1.1,1.9-2.1c0-1-0.6-1.9-2-1.9h-2.6V68.3z"/>
		<polygon points="175.9,55.8 175.9,58.4 179.7,58.4 179.7,71 179.9,71 182.8,71 183,71 183,58.4 186.8,58.4 186.8,55.8 		"/>
		<polygon points="201,55.8 201,58.4 204.8,58.4 204.8,71 205,71 207.8,71 208,71 208,58.4 211.9,58.4 211.9,55.8 		"/>
		<polygon points="173.6,70.9 173.6,55.9 170.6,55.9 164.4,66.1 164.4,55.9 161.3,55.9 161.3,70.9 164.4,70.9 164.4,70.9 
			170.6,60.7 170.6,70.9 		"/>
		<path d="M145.9,65.9v-5.2c0-3.3-1.8-5.1-5-5.1c-1.2,0-3.3,0.5-4.2,1.2c-0.3-0.5-0.6-1-1.2-1.2l-1.9,1.8c0.7,0.5,0.8,1.5,0.8,1.9
			v16.5h3.1v-5.3c0.9,0.5,2.4,0.6,3.2,0.6C143.6,71.2,145.9,69.3,145.9,65.9L145.9,65.9z M142.8,66.2c0,1.3-1.3,2.1-2.5,2.1
			c-1,0-2.1-0.4-2.8-0.8v-7.8v-0.3c0.7-0.7,2.1-1.1,2.9-1.1c1.2,0,2.3,0.9,2.3,2.2V66.2z"/>
		<path d="M159.3,69.2l-1.3-2.3c-1.8,1.3-2.8,1.6-3.7,1.6c-1.3,0-2.5-0.6-2.5-2v-5.9c0-1.3,1.3-2.3,2.7-2.3c0.9,0,2.2,0.6,3.1,1.5
			l1.6-2.1c-1.1-1.3-2.7-2.3-5.1-2.3c-3.1,0-5.5,1.9-5.5,5.2v5.7c0,3.2,2.5,4.7,5.5,4.7C156.7,71.1,158.4,69.9,159.3,69.2z"/>
		<path d="M199.7,69.1l-1.3-2.4c-1.5,1.2-3,1.6-4.2,1.6c-1.5,0-2.7-0.8-2.7-2.5v-1.4h7.8v-3.7c0-3.8-2.4-5.3-5.3-5.3
			c-3.3,0-5.7,1.7-5.7,5.5v5c0,3.4,2.2,5.1,5.6,5.1C196.5,71.1,198,70.3,199.7,69.1L199.7,69.1z M196.2,60.1V62h-4.7v-1.7
			c0-1.3,1.2-2.1,2.5-2.1C194.9,58.2,196.2,58.7,196.2,60.1z"/>
		<path d="M131.8,69.1l-1.3-2.4c-1.5,1.2-3,1.6-4.2,1.6c-1.5,0-2.7-0.8-2.7-2.5v-1.4h7.8v-3.7c0-3.8-2.4-5.3-5.3-5.3
			c-3.3,0-5.7,1.7-5.7,5.5v5c0,3.4,2.2,5.1,5.6,5.1C128.5,71.1,130,70.3,131.8,69.1L131.8,69.1z M128.3,60.1V62h-4.7v-1.7
			c0-1.3,1.2-2.1,2.5-2.1C127,58.2,128.3,58.7,128.3,60.1z"/>
		<path class="st0" d="M0,3.1L0,3.1c6.2,0,8.9,4.3,11.6,9l0,0l22.9,39.3c1.1,2,2.1,4.3,2.1,6.5l0,0c-0.1,5.8-7.6,7.9-12.1,8.1l0,0
			c-3.3,0.2-6.5-0.6-9.4-1.9l0,0l-1.8,2.3c1.1,4.5,5.3,10,11,10l0,0c10-0.1,15.3-9.2,19.3-16.7l0,0l7.5-13.8L29.4,8.8
			c-2-3.3,1.3-5.7,4.8-5.8l0,0L35,0H0.8L0,3.1z"/>
	</g>
</g>
</svg>
