<!-- Generator: Adobe Illustrator 23.0.2, SVG Export Plug-In  -->
<svg version="1.1" xmlns="http://www.w3.org/2000/svg" xmlns:xlink="http://www.w3.org/1999/xlink" x="0px" y="0px" width="93.4px"
	 height="93.4px" viewBox="0 0 93.4 93.4" style="enable-background:new 0 0 93.4 93.4;" xml:space="preserve">
<style type="text/css">
	.st0{fill-rule:evenodd;clip-rule:evenodd;}
	.st1{fill-rule:evenodd;clip-rule:evenodd;fill:#FFFFFF;}
</style>
<defs>
</defs>
<g>
	<path class="st0" d="M32.4,0H61c26.2,0,32.4,6.2,32.4,32.4V61c0,26.2-6.2,32.4-32.4,32.4H32.4C6.2,93.4,0,87.2,0,61V32.4
		C0,6.2,6.2,0,32.4,0"/>
	<path class="st1" d="M76.4,32.2c0.5-1.4,0-2.5-2-2.5h-6.8c-1.7,0-2.5,0.9-3,1.9c0,0-3.5,8.4-8.4,13.9c-1.6,1.6-2.3,2.1-3.2,2.1
		c-0.5,0-1.1-0.5-1.1-2V32.1c0-1.7-0.5-2.5-2-2.5H39.4c-1.1,0-1.7,0.8-1.7,1.6c0,1.6,2.4,2,2.7,6.7v10c0,2.2-0.4,2.6-1.3,2.6
		c-2.3,0-7.9-8.5-11.3-18.2c-0.7-1.9-1.3-2.6-3-2.6H18c-2,0-2.3,0.9-2.3,1.9c0,1.8,2.3,10.7,10.7,22.6C32,62.2,40,66.6,47.2,66.6
		c4.3,0,4.9-1,4.9-2.6v-6.1c0-2,0.4-2.3,1.8-2.3c1,0,2.8,0.5,6.8,4.4c4.6,4.6,5.4,6.7,8,6.7h6.8c2,0,2.9-1,2.4-2.9
		c-0.6-1.9-2.8-4.7-5.7-8c-1.6-1.8-4-3.9-4.7-4.9c-1-1.3-0.7-1.8,0-3C67.3,47.8,75.6,36.1,76.4,32.2"/>
</g>
</svg>
