<?xml version="1.0" standalone="no"?>
<!DOCTYPE svg PUBLIC "-//W3C//DTD SVG 20010904//EN"
 "http://www.w3.org/TR/2001/REC-SVG-20010904/DTD/svg10.dtd">
<svg version="1.0" xmlns="http://www.w3.org/2000/svg"
 width="1000.000000pt" height="1000.000000pt" viewBox="0 0 1000.000000 1000.000000"
 preserveAspectRatio="xMidYMid meet">
<metadata>
Created by potrace 1.11, written by Peter Selinger 2001-2013
</metadata>
<g transform="translate(0.000000,1000.000000) scale(0.100000,-0.100000)"
fill="#000000" stroke="none">
<path d="M4829 7976 c-2 -2 -45 -6 -95 -10 -89 -6 -196 -22 -344 -51 -41 -9
-84 -17 -95 -19 -42 -8 -192 -48 -236 -62 -25 -8 -54 -17 -65 -19 -10 -2 -59
-18 -109 -35 -49 -17 -94 -33 -100 -34 -5 -2 -19 -7 -30 -11 -11 -4 -60 -23
-110 -42 -49 -19 -101 -40 -115 -46 -14 -5 -27 -11 -30 -12 -17 -6 -54 -22
-118 -51 -41 -19 -76 -34 -78 -34 -3 0 -54 -24 -114 -54 -61 -30 -110 -52
-110 -49 0 3 -8 0 -17 -8 -10 -8 -40 -26 -68 -39 -27 -14 -53 -29 -57 -35 -4
-5 -8 -7 -8 -3 0 4 -27 -9 -61 -28 -33 -18 -65 -34 -70 -34 -5 0 -9 -3 -9 -8
0 -4 -15 -14 -32 -21 -18 -8 -61 -32 -96 -53 -34 -21 -64 -38 -66 -38 -4 0
-180 -105 -226 -135 -129 -84 -180 -115 -188 -115 -6 0 -12 -7 -16 -15 -3 -8
-11 -15 -19 -15 -7 0 -22 -8 -33 -17 -11 -10 -28 -22 -37 -28 -86 -51 -389
-264 -395 -277 -2 -5 -8 -8 -13 -8 -10 0 -382 -279 -505 -379 -44 -36 -98 -79
-119 -96 -21 -16 -43 -34 -50 -40 -6 -5 -35 -30 -65 -55 -30 -24 -64 -52 -75
-62 -11 -9 -58 -49 -105 -89 -89 -74 -168 -143 -224 -194 -18 -16 -68 -61
-111 -100 -95 -84 -266 -247 -312 -295 -27 -28 -74 -106 -79 -130 0 -3 -5 -14
-10 -25 -5 -11 -9 -61 -9 -110 0 -82 3 -97 32 -156 30 -60 100 -139 239 -266
16 -15 59 -55 95 -88 36 -33 98 -89 139 -125 40 -36 84 -74 96 -85 26 -23 35
-32 175 -150 133 -113 155 -132 257 -212 45 -37 82 -70 82 -75 0 -4 6 -8 13
-8 7 0 23 -10 37 -23 14 -12 45 -38 70 -57 25 -19 50 -39 57 -45 6 -5 30 -23
52 -39 23 -17 41 -33 41 -38 0 -4 5 -8 10 -8 6 0 59 -37 119 -82 60 -46 119
-90 131 -98 12 -8 41 -29 64 -46 22 -17 93 -66 156 -109 63 -44 120 -83 125
-87 38 -30 255 -168 263 -168 6 0 12 -4 14 -8 2 -4 50 -36 108 -72 58 -35 112
-69 121 -77 9 -7 19 -10 22 -6 4 3 7 1 7 -5 0 -7 5 -12 10 -12 6 0 36 -16 66
-35 30 -19 58 -35 63 -35 5 0 16 -6 23 -13 7 -7 24 -18 38 -24 14 -7 54 -29
90 -49 72 -41 429 -220 500 -252 25 -11 74 -32 110 -47 36 -15 79 -33 95 -40
26 -12 75 -31 200 -78 17 -7 32 -12 35 -13 5 -1 23 -7 65 -24 11 -4 38 -13 60
-19 22 -7 49 -16 60 -21 78 -32 456 -123 560 -135 17 -1 37 -5 45 -8 8 -3 40
-8 70 -12 30 -3 82 -9 115 -12 131 -15 548 -7 640 12 22 5 79 14 135 21 19 3
44 7 55 9 35 7 69 15 95 20 14 4 34 8 45 10 11 3 29 7 40 9 46 11 183 48 226
62 25 8 54 16 65 18 21 4 297 101 329 116 41 18 170 72 180 74 16 5 81 34 190
86 195 92 215 101 221 100 4 -1 10 3 13 8 3 5 51 32 106 61 55 28 125 65 155
82 30 17 75 42 100 56 25 14 112 66 195 116 82 50 162 97 178 104 15 8 27 19
27 24 0 5 5 9 10 9 9 0 296 185 310 200 3 3 13 10 22 15 55 32 281 196 286
208 2 4 8 7 13 7 9 0 282 204 395 294 28 23 66 52 84 66 18 14 38 30 44 35 6
6 45 37 86 70 41 33 81 66 89 73 8 8 45 38 82 69 38 30 69 60 69 66 0 6 3 8 6
4 4 -3 12 -1 19 6 6 7 33 30 59 52 26 22 62 54 80 70 18 17 66 59 106 95 147
131 317 289 400 373 21 21 53 68 71 105 31 62 34 74 34 162 -1 86 -4 101 -32
160 -31 65 -67 107 -204 235 -156 146 -197 183 -319 289 -69 60 -127 112 -130
115 -6 7 -234 198 -298 249 -22 19 -50 41 -61 50 -39 33 -57 48 -116 94 -33
25 -71 55 -85 67 -37 31 -42 34 -80 61 -19 13 -37 27 -40 30 -3 4 -36 30 -75
58 -38 28 -77 58 -85 65 -8 7 -31 24 -50 37 -19 13 -37 27 -40 30 -3 3 -13 10
-22 15 -9 6 -61 42 -115 81 -96 70 -400 274 -518 349 -33 21 -76 48 -96 61
-19 13 -40 24 -47 24 -7 0 -12 5 -12 10 0 6 -7 10 -15 10 -8 0 -15 5 -15 10 0
6 -4 10 -9 10 -4 0 -41 19 -80 43 -113 66 -184 107 -211 120 -14 6 -27 14 -30
17 -12 14 -422 220 -437 220 -7 0 -13 5 -13 10 0 6 -4 10 -10 10 -5 0 -33 11
-62 24 -111 50 -183 81 -188 82 -3 0 -23 8 -45 18 -68 30 -432 161 -460 166
-3 0 -10 2 -17 4 -7 2 -33 9 -58 16 -25 7 -52 15 -60 18 -8 3 -24 7 -34 9 -10
2 -53 12 -95 22 -42 11 -89 22 -106 25 -16 2 -53 9 -82 15 -29 6 -71 13 -95
16 -93 11 -134 17 -168 21 -42 6 -446 15 -451 10z m391 -831 c25 -3 68 -8 95
-11 28 -3 61 -7 75 -10 14 -3 43 -9 65 -14 107 -22 97 -19 230 -62 39 -12 72
-23 75 -23 3 0 14 -6 25 -12 11 -6 22 -11 25 -12 37 -4 322 -145 328 -162 2
-5 8 -9 12 -9 8 0 68 -36 95 -58 6 -4 35 -25 65 -47 30 -22 71 -53 90 -70 78
-68 146 -131 165 -155 11 -13 28 -31 38 -40 11 -8 54 -60 98 -115 43 -55 85
-108 94 -117 8 -10 15 -20 15 -23 0 -3 20 -36 45 -75 25 -39 45 -74 45 -79 0
-5 6 -16 13 -23 11 -12 45 -81 111 -228 13 -31 28 -69 32 -85 4 -17 11 -36 17
-42 5 -7 6 -13 3 -13 -4 0 -4 -6 1 -12 4 -7 8 -17 10 -23 10 -46 13 -59 18
-75 12 -38 41 -171 49 -225 29 -199 28 -545 -3 -677 -5 -20 -6 -39 -4 -42 3
-2 1 -10 -3 -17 -4 -7 -9 -22 -10 -34 -7 -62 -63 -249 -111 -369 -55 -139
-180 -370 -243 -450 -5 -6 -39 -49 -76 -96 -88 -112 -284 -305 -359 -354 -16
-11 -39 -28 -50 -38 -50 -47 -301 -194 -405 -236 -30 -13 -64 -27 -75 -32 -22
-9 -46 -17 -58 -19 -4 0 -21 -8 -37 -16 -17 -9 -30 -13 -30 -11 0 3 -15 -1
-34 -9 -18 -8 -44 -16 -57 -19 -13 -3 -62 -14 -109 -25 -81 -18 -118 -24 -220
-39 -25 -3 -135 -6 -245 -6 -174 -1 -252 3 -331 18 -11 2 -39 7 -64 11 -73 11
-268 64 -355 96 -179 68 -478 233 -570 316 -11 10 -43 36 -70 58 -63 50 -217
204 -270 270 -22 28 -42 52 -46 55 -3 3 -21 28 -40 55 -18 28 -37 52 -40 55
-31 26 -205 354 -225 425 -3 10 -41 119 -51 145 -3 8 -8 22 -10 30 -2 8 -5 20
-7 25 -13 45 -26 94 -30 115 -3 14 -10 50 -16 80 -39 186 -46 499 -17 700 14
92 18 126 16 130 -1 3 2 14 8 25 6 11 14 36 17 56 3 20 10 47 15 60 5 13 9 27
9 32 1 18 58 177 84 235 15 35 28 70 28 77 0 7 3 15 8 17 4 2 25 39 47 83 21
44 42 82 45 85 4 3 23 32 43 66 20 33 49 76 64 96 15 20 37 49 48 64 11 15 31
42 44 58 38 48 251 258 295 291 21 17 44 35 50 41 38 37 217 150 321 203 39
20 73 41 77 46 4 6 8 6 8 1 0 -5 6 -4 13 1 22 18 220 91 317 117 165 44 264
61 420 72 52 4 96 7 97 8 5 4 223 -4 263 -9z"/>
</g>
</svg>
