<?xml version="1.0" standalone="no"?>
<!DOCTYPE svg PUBLIC "-//W3C//DTD SVG 20010904//EN"
 "http://www.w3.org/TR/2001/REC-SVG-20010904/DTD/svg10.dtd">
<svg version="1.0" xmlns="http://www.w3.org/2000/svg"
 width="824.000000pt" height="824.000000pt" viewBox="0 0 824.000000 824.000000"
 preserveAspectRatio="xMidYMid meet">
<metadata>
Created by potrace 1.11, written by Peter Selinger 2001-2013
</metadata>
<g transform="translate(0.000000,824.000000) scale(0.100000,-0.100000)"
fill="#000000" stroke="none">
<path d="M4077 7953 c-21 -82 -40 -159 -43 -173 -2 -14 -8 -32 -11 -40 -4 -8
-8 -22 -9 -30 -4 -33 -14 -71 -53 -220 -22 -85 -42 -164 -44 -175 -2 -11 -7
-27 -10 -35 -7 -19 -18 -65 -24 -105 -3 -16 -10 -36 -15 -42 -6 -7 -8 -13 -5
-13 3 0 1 -16 -5 -36 -5 -20 -11 -44 -13 -53 -2 -9 -11 -45 -20 -81 -9 -36
-19 -72 -20 -80 -2 -8 -4 -15 -5 -15 -2 0 -3 -5 -13 -55 -3 -14 -10 -40 -16
-58 -5 -18 -10 -35 -10 -37 -1 -3 -2 -7 -2 -10 -1 -3 -2 -8 -3 -12 -1 -5 -8
-35 -16 -68 -16 -68 -15 -65 -23 -85 -3 -8 -8 -26 -10 -40 -3 -14 -7 -34 -10
-45 -3 -11 -29 -112 -57 -225 -28 -113 -53 -213 -55 -223 -2 -9 -6 -21 -9 -25
-3 -5 -7 -20 -10 -34 -2 -13 -19 -83 -36 -154 -18 -71 -34 -136 -35 -144 -2
-8 -4 -15 -5 -15 -2 0 -4 -11 -13 -50 -3 -11 -13 -49 -22 -85 -9 -36 -19 -74
-21 -84 -2 -11 -7 -23 -12 -28 -5 -5 -56 13 -116 42 -59 27 -109 50 -111 50
-2 0 -47 21 -102 46 -88 41 -139 64 -153 69 -7 2 -80 36 -173 79 -43 20 -80
36 -82 36 -2 0 -41 17 -87 39 -84 39 -145 67 -253 116 -33 15 -93 43 -133 61
-41 19 -75 34 -77 34 -2 0 -51 23 -110 50 -59 28 -108 50 -110 50 -3 0 -124
55 -220 100 -72 33 -227 104 -310 140 -47 21 -159 72 -230 105 -27 13 -70 32
-95 43 -25 11 -81 36 -124 56 -44 20 -81 34 -83 32 -4 -4 133 -190 175 -236
12 -14 22 -28 22 -33 0 -4 10 -18 23 -31 12 -13 47 -58 77 -100 30 -42 58 -76
63 -76 4 0 7 -5 7 -10 0 -6 5 -16 10 -23 24 -28 47 -56 70 -87 14 -19 57 -75
95 -126 39 -51 79 -105 90 -120 11 -15 29 -39 41 -53 11 -14 65 -84 119 -156
54 -71 108 -142 119 -156 12 -15 30 -39 41 -54 17 -24 48 -66 82 -110 29 -37
79 -102 86 -110 4 -5 50 -66 102 -135 52 -69 98 -129 102 -135 5 -5 51 -66
103 -135 52 -69 97 -127 100 -130 3 -3 17 -21 30 -40 13 -19 27 -37 30 -40 3
-3 25 -32 49 -65 25 -33 48 -61 53 -63 26 -11 -9 -35 -150 -107 -86 -43 -169
-88 -184 -98 -16 -10 -28 -16 -28 -14 0 3 -35 -14 -78 -36 -43 -23 -155 -80
-248 -127 -93 -47 -170 -88 -172 -92 -2 -5 -11 -8 -20 -8 -9 0 -28 -9 -42 -20
-14 -11 -32 -20 -42 -20 -9 0 -18 -3 -20 -7 -2 -6 -211 -115 -368 -192 -8 -5
-26 -14 -40 -21 -14 -8 -43 -22 -65 -32 -22 -10 -47 -23 -55 -28 -8 -5 -85
-44 -170 -87 -85 -43 -157 -80 -160 -83 -3 -3 -106 -56 -230 -119 -124 -62
-253 -128 -288 -146 -34 -18 -62 -30 -62 -26 0 3 -4 2 -8 -4 -11 -15 -50 -35
-69 -35 -9 0 -13 -3 -9 -7 4 -4 33 -8 64 -9 100 -3 650 -16 833 -18 97 -2 182
-6 188 -10 6 -4 11 -3 11 3 0 7 8 7 25 1 17 -6 25 -6 25 1 0 6 5 7 12 3 7 -4
89 -9 182 -10 94 -1 275 -5 401 -8 393 -10 682 -17 883 -21 107 -2 196 -6 199
-9 5 -5 -4 -60 -23 -151 -6 -26 -23 -113 -29 -145 -3 -14 -7 -34 -9 -45 -18
-85 -57 -275 -61 -295 -3 -14 -7 -36 -10 -50 -3 -14 -8 -41 -11 -60 -3 -19
-10 -43 -15 -53 -6 -9 -8 -21 -5 -25 3 -5 -1 -33 -9 -63 -7 -30 -16 -67 -19
-84 -2 -16 -14 -74 -25 -129 -12 -54 -23 -108 -25 -120 -2 -11 -12 -57 -21
-101 -9 -44 -19 -91 -21 -105 -2 -14 -7 -36 -10 -50 -4 -14 -8 -36 -10 -50 -9
-55 -13 -75 -14 -75 -1 0 -3 -9 -6 -20 -4 -21 -30 -151 -40 -195 -2 -14 -7
-33 -10 -43 -3 -10 -8 -35 -10 -55 -3 -20 -7 -45 -10 -54 -6 -21 -14 -56 -19
-88 -2 -14 -16 -81 -30 -150 -25 -119 -30 -141 -39 -192 -3 -13 -9 -45 -15
-73 -13 -61 -22 -105 -25 -125 -4 -25 -27 -134 -33 -155 -6 -25 35 17 132 135
39 47 82 99 96 115 15 17 54 64 88 105 34 41 75 90 91 107 17 18 30 35 30 38
0 3 10 16 23 29 12 13 47 54 77 91 30 37 60 73 65 79 11 11 206 244 315 376
59 71 77 92 100 119 8 9 32 38 53 64 21 25 43 52 50 59 7 7 42 49 77 93 36 44
70 85 76 90 6 6 42 48 80 95 80 98 109 133 144 171 14 15 32 37 40 49 8 12 24
32 35 44 11 12 38 44 60 70 22 27 47 56 55 66 20 23 83 98 108 130 14 16 24
22 30 15 5 -5 47 -55 93 -110 46 -55 91 -109 101 -120 9 -11 55 -66 102 -123
47 -56 91 -108 98 -116 7 -7 24 -28 38 -46 14 -18 30 -38 35 -44 12 -12 75
-88 323 -385 90 -108 173 -207 185 -221 13 -14 49 -58 82 -97 32 -40 63 -73
67 -73 4 0 8 -6 8 -12 0 -7 15 -29 33 -48 27 -29 237 -280 380 -453 18 -22 39
-47 48 -56 9 -10 47 -56 85 -102 38 -46 84 -100 102 -119 l34 -35 -7 30 c-4
17 -9 38 -11 48 -12 52 -15 65 -19 92 -7 50 -24 136 -29 143 -2 4 -7 25 -10
47 -12 76 -17 100 -22 117 -3 9 -7 27 -9 40 -3 13 -9 46 -15 73 -5 28 -12 61
-14 75 -3 14 -5 25 -6 25 -1 0 -3 11 -6 25 -2 14 -8 45 -14 70 -5 25 -12 56
-14 70 -13 70 -17 87 -23 115 -4 17 -7 35 -8 40 -1 6 -3 12 -4 15 -2 3 -4 14
-6 25 -4 27 -14 82 -25 130 -5 22 -12 55 -15 74 -3 19 -19 96 -35 171 -16 75
-31 150 -34 166 -3 16 -8 40 -11 54 -8 38 -26 122 -31 150 -3 14 -16 79 -30
145 -13 66 -27 131 -30 145 -2 14 -12 61 -21 105 -9 44 -17 89 -19 100 -2 11
-6 31 -9 45 -8 37 -26 122 -30 145 -5 24 -30 146 -48 233 -12 56 -12 63 2 61
9 -1 18 0 21 1 3 1 86 3 185 5 99 2 284 6 410 9 527 13 670 17 862 21 112 2
207 6 213 10 5 3 10 1 10 -5 0 -6 5 -8 11 -4 6 3 90 8 187 9 97 2 303 6 457
10 154 4 320 7 369 8 87 1 88 1 66 19 -12 10 -28 18 -35 18 -7 0 -18 7 -25 15
-7 8 -18 15 -24 15 -7 0 -50 21 -97 46 -46 25 -88 47 -94 48 -5 1 -16 5 -24
10 -20 13 -166 87 -501 257 -168 85 -307 156 -310 159 -3 3 -79 42 -170 88
-91 46 -230 116 -310 157 -80 41 -150 75 -157 75 -6 0 -13 3 -15 8 -1 4 -37
25 -78 46 -229 116 -291 146 -296 145 -4 0 -10 3 -13 8 -3 5 -81 46 -173 92
-93 47 -168 87 -168 91 0 7 27 44 53 71 9 11 17 21 17 24 0 8 94 130 108 138
6 4 12 14 12 22 0 7 3 15 8 17 4 2 50 59 102 128 113 150 104 138 133 175 13
17 75 98 137 180 62 83 123 162 134 176 12 15 30 39 41 54 11 16 25 33 30 39
6 6 44 56 85 111 41 55 78 105 83 110 37 48 165 216 331 436 110 145 202 266
205 269 4 3 33 41 66 85 32 44 63 85 67 90 60 76 88 117 88 127 0 8 -3 9 -8 3
-4 -6 -56 -32 -117 -59 -140 -62 -224 -101 -300 -136 -33 -16 -152 -70 -265
-120 -210 -94 -242 -109 -393 -179 -48 -22 -99 -44 -112 -47 -14 -3 -25 -10
-25 -15 0 -5 -5 -9 -11 -9 -5 0 -29 -9 -52 -19 -23 -10 -87 -39 -142 -64 -55
-25 -125 -56 -155 -70 -30 -14 -107 -48 -170 -77 -63 -29 -153 -70 -199 -91
-46 -22 -94 -42 -107 -45 -13 -3 -28 -12 -35 -20 -6 -8 -17 -14 -24 -14 -11 0
-62 -22 -263 -116 -40 -19 -75 -34 -77 -34 -2 0 -29 -12 -60 -26 -31 -15 -57
-25 -60 -23 -2 3 -6 16 -9 29 -3 14 -12 54 -21 90 -9 36 -18 73 -20 82 -2 10
-17 68 -34 130 -16 62 -32 124 -34 138 -3 14 -11 45 -18 70 -7 25 -13 50 -15
55 -9 42 -37 153 -41 165 -3 8 -7 24 -8 36 -1 12 -5 30 -10 40 -4 10 -15 53
-25 94 -10 41 -25 100 -34 132 -8 31 -18 67 -20 80 -3 12 -17 68 -31 123 -14
55 -28 111 -31 125 -3 14 -9 39 -14 55 -5 17 -12 41 -14 55 -9 41 -166 664
-173 680 -3 8 -7 24 -8 35 -2 11 -5 27 -7 35 -3 8 -10 33 -16 55 -14 51 -24
95 -25 118 -1 9 -4 17 -7 17 -4 0 -7 6 -7 13 0 6 -8 41 -18 77 -9 36 -18 70
-19 75 -16 73 -30 125 -35 125 -4 0 -23 -66 -44 -147z"/>
</g>
</svg>
