<svg width="500" height="299" viewBox="0 0 500 299" fill="none" xmlns="http://www.w3.org/2000/svg">
<path d="M493.761 135.337C493.761 135.337 358.379 0.495369 250.014 0.495369C141.65 0.495369 6.26663 135.337 6.26663 135.337C-2.05262 143.156 -2.12576 155.991 6.26663 163.662C6.26663 163.662 141.65 298.505 250.014 298.505C358.379 298.505 493.761 163.662 493.761 163.662C502.006 155.844 502.154 143.083 493.761 135.337ZM251.045 258.082C191.488 258.082 143.122 209.691 143.122 149.943C143.122 90.1942 191.415 41.8036 251.045 41.8036C310.675 41.8036 358.967 90.2665 358.967 149.943C358.967 209.619 310.601 258.082 251.045 258.082Z" fill="#F1F6F1"/>
</svg>
